<?xml version="1.0" standalone="no"?>
<!DOCTYPE svg PUBLIC "-//W3C//DTD SVG 1.1//EN" "http://www.w3.org/Graphics/SVG/1.1/DTD/svg11.dtd" >
<!--
2013-9-30: Created.
-->
<svg>
<metadata>
Created by iconfont
</metadata>
<defs>

<font id="iconfont" horiz-adv-x="1024" >
  <font-face
    font-family="iconfont"
    font-weight="500"
    font-stretch="normal"
    units-per-em="1024"
    ascent="896"
    descent="-128"
  />
    <missing-glyph />
    
    <glyph glyph-name="suoding" unicode="&#59273;" d="M400.51148838 473.70562742l-113.28671338-1e-8 0 132.16783184q0 43.15684307 17.0829167 80.46953086t47.20279746 65.63436591 71.02897119 44.50549483 89.46053965 16.18381582q43.15684307 0 83.16683349-16.18381582t71.0289712-44.50549483 49.45054922-65.63436591 18.43156846-80.46953086l0-132.16783184-108.79120899 1e-8 0 106.99300722q0 56.64335625-31.46853164 87.66233789t-85.41458526 31.01898076q-48.55144834 0-78.22177822-31.01898076t-29.67032988-87.66233789l0-106.99300722zM788.02397597 419.7595738q24.27572461 0 41.8081922-17.53246758t17.53246758-41.80819218l0-278.72127862q0-24.27572461-8.5414588-45.4045957t-23.37662372-36.86313692-35.06493516-24.72527461-44.50549482-8.99100879l-454.0459544 0q-24.27572461 0-44.05594395 8.99100879t-33.71628339 23.82617374-21.57842198 34.61538427-7.64235791 42.25774219l0 285.01498476q0 24.27572461 17.08291671 41.80819219t41.3586413 17.53246758l53.94605362 0 113.28671337 0 224.775225 0 108.79120898 0 53.94605362 0z"  horiz-adv-x="1024" />

    
    <glyph glyph-name="xiangshang" unicode="&#59079;" d="M854.016 156.672l-313.344 309.248-313.344-309.248q-14.336-14.336-32.768-21.504t-37.376-7.168-36.864 7.168-32.256 21.504q-29.696 28.672-29.696 68.608t29.696 68.608l376.832 373.76q14.336 14.336 34.304 22.528t40.448 9.216 39.424-5.12 31.232-20.48l382.976-379.904q28.672-28.672 28.672-68.608t-28.672-68.608q-14.336-14.336-32.768-21.504t-37.376-7.168-36.864 7.168-32.256 21.504z"  horiz-adv-x="1024" />

    
    <glyph glyph-name="jiesuo" unicode="&#59783;" d="M787.14697082 805.875q40.21847094 0 77.50434457-15.08192661t66.19289941-41.47529754 46.50260642-61.58453303 17.59558062-75.40963219l0-124.00695099-101.38406149 0 0 100.54617654q0 52.7867427-29.74491073 82.11271097t-80.0179986 29.32596826q-45.24577981 0-72.89597818-29.32596826t-27.65019836-82.11271097l0-102.22194644-105.57348542 0 0 125.68272089q0 40.21847094 15.91981156 75.40963219t43.9889524 61.58453303 66.1928994 41.47529754 83.3695384 15.08192661zM785.47120175 234.43756219l0-72.05809322 0-39.38058601q0-22.6228895-7.95990538-42.73212496t-21.78500536-34.35327713-32.67750723-22.62288949-41.47529756-8.37884785l-423.96971236 0q-22.6228895 0-41.0563559 7.95990537t-31.83962229 21.78500537-20.52817794 32.25856475-7.12202124 39.380586l0 266.44736839q0 23.46077444 16.33875403 39.38058599t38.12375857 15.91981155l518.6506951 0q23.46077444 0 39.38058601-15.91981155t15.91981155-39.38058599l0-148.3056104z"  horiz-adv-x="1024" />

    
    <glyph glyph-name="wenjianjia" unicode="&#58912;" d="M935.63418579 71.73990784c0 0 0 481.14168091 0 528.37396545 0 64.15449829-58.42037659 58.1993042-58.42037659 58.1993042s-348.93874511-0.41174011-330.48756408 0c-20.04581909-0.44634705-29.89742432 10.50303955-29.89742432 10.50303955s-13.88562011 23.89081421-38.85724182 61.68315124c-26.19085693 39.61150818-56.51691284 33.14165955-56.51691284 33.14165955H164.1843125c-71.2774292 0-72.06720886-68.56564636-72.06720886-68.56564636s0-570.42312012 0-619.76642761c0-76.49351807 57.76984863-67.00388489 57.76984863-67.00388489s689.0872467 0 732.62894898 0C944.28435364 8.305151369999976 935.63418579 71.73990784 935.63418579 71.73990784zM883.16982727 103.11224670000001c0-23.59888-19.13796387-42.71739807-42.71904602-42.71739806H187.3536875c-23.58116455 0-42.71739807 19.11851807-42.71739807 42.71739806V545.3992499999999c0 23.59797364 19.13623352 42.73428955 42.71739807 42.73428955h653.09709375c23.58116455 0 42.71904602-19.13623352 42.71904602-42.73428955V103.11225000000002z"  horiz-adv-x="1024" />

    
    <glyph glyph-name="shan" unicode="&#58959;" d="M948.44375 144.31875000000002c6.975-13.21875 10.29375-25.70625 9.95625-37.35s-3.825-21.7125-10.4625-30.2625c-6.6375-8.49375-15.975-15.3-28.0125-20.30625-12.0375-5.0625-25.9875-7.5375-41.79375-7.5375L511.325 48.862499999999955 267.0875 48.862499999999955l-128.25 0c-17.1 0-31.21875 3.15-42.3 9.45s-19.18125 14.34375-24.24375 24.13125-7.25625 20.8125-6.6375 33.075c0.61875 12.31875 4.10625 24.75 10.4625 37.35 8.8875 17.04375 18.50625 35.26875 28.96875 54.84375 10.4625 19.51875 21.09375 39.375 31.8375 59.56875L169.2125 327.75c10.74375 20.19375 21.20625 39.375 31.33125 57.65625 23.45625 43.48125 47.25 86.9625 71.325 130.5L392.58125 280.5 630.125 719.1375c42.46875-74.3625 83.30625-147.15 122.56875-218.41875 17.1-30.2625 34.5375-61.59375 52.25625-94.05s35.325-64.29375 52.7625-95.5125c17.4375-31.21875 33.8625-61.14375 49.3875-89.83125C922.625 192.69375000000002 936.40625 167.04375000000005 948.44375 144.31875000000002L948.44375 144.31875000000002z"  horiz-adv-x="1024" />

    
    <glyph glyph-name="zuobiao" unicode="&#59080;" d="M532.941961-128.109358c164.003238 230.399437 238.22466 370.149295 246.668982 386.344139l0.099261-0.059352c29.045523 48.343031 44.398186 103.853299 44.398186 160.530137 0 83.366709-32.465412 161.744801-91.413989 220.693378-58.9496 58.9496-137.326669 91.415013-220.694401 91.415013-83.366709 0-161.744801-32.465412-220.693378-91.415013s-91.415013-137.326669-91.415013-220.693378c0-56.67786 15.352663-112.189152 44.399209-160.532183l0.026606 0.01535c9.810437-20.770046 78.18878-160.28352 247.080352-386.768811 0.62217-0.845251 1.300622-1.658779 2.035356-2.432399 0.084934-0.090051 0.172939-0.176009 0.258896-0.264013 0.225127-0.230244 0.453325-0.458441 0.688685-0.681522 0.165776-0.157589 0.334621-0.312108 0.503467-0.464581 0.149403-0.134053 0.300852-0.267083 0.454348-0.399089 0.226151-0.195451 0.455371-0.38681 0.687662-0.573051 0.085958-0.068562 0.173962-0.135076 0.260943-0.202615 0.800225-0.623193 1.63115-1.194198 2.488681-1.711991 0.066515-0.040932 0.134053-0.081864 0.200568-0.121773 1.067308-0.630357 2.171456-1.182942 3.307326-1.647523 0.193405-0.079818 0.387833-0.151449 0.582261-0.225127 0.343831-0.130983 0.688685-0.254803 1.036609-0.370437 0.2415-0.080841 0.481977-0.160659 0.724501-0.234337 0.342808-0.103354 0.688685-0.193405 1.034563-0.281409 0.381693-0.097214 0.76441-0.186242 1.149173-0.265036 0.339738-0.070608 0.680499-0.13917 1.022283-0.195451 0.26299-0.042979 0.524956-0.077771 0.788969-0.112564 0.328481-0.044002 0.656963-0.080841 0.986467-0.11154 0.234337-0.021489 0.468674-0.045025 0.704035-0.060375 0.51063-0.033769 1.022283-0.054235 1.534959-0.057305 0.044002 0 0.086981-0.005117 0.130983-0.005117 0.007163 0 0.013303 0.001023 0.020466 0.001023 0.007163 0 0.014326-0.001023 0.021489-0.001023 0.041956 0 0.083911 0.005117 0.125867 0.005117 0.533143 0.00307 1.064238 0.025583 1.595334 0.062422 0.239454 0.016373 0.477884 0.039909 0.717338 0.062422 0.344854 0.033769 0.688685 0.073678 1.031493 0.121773 0.268106 0.036839 0.535189 0.072655 0.802272 0.11768 0.375553 0.064468 0.74906 0.14224 1.121544 0.222057 0.394996 0.084934 0.788969 0.181125 1.180895 0.285502 0.329505 0.088004 0.657986 0.177032 0.984421 0.278339 0.261966 0.080841 0.522909 0.169869 0.782829 0.25992 0.347924 0.119727 0.692778 0.249687 1.035586 0.384763 0.207731 0.081864 0.415462 0.159636 0.62217 0.24764 0.552585 0.234337 1.098008 0.488117 1.63422 0.762363 0.080841 0.040932 0.159636 0.088004 0.239454 0.12996 0.50756 0.26606 1.004887 0.551562 1.496074 0.852414 0.091074 0.056282 0.181125 0.11154 0.271176 0.168846 0.847298 0.535189 1.665942 1.122567 2.453888 1.76111 0.089028 0.071631 0.180102 0.14224 0.268106 0.214894 0.211824 0.177032 0.419556 0.361227 0.626263 0.545422 0.168846 0.150426 0.336668 0.300852 0.500397 0.454348 0.153496 0.144286 0.304945 0.290619 0.455371 0.438998 0.239454 0.236384 0.472767 0.476861 0.701988 0.720408 0.081864 0.088004 0.165776 0.173962 0.246617 0.264013C531.649526-129.834652 532.324908-128.988378 532.941961-128.109358zM286.85217 286.721579c-23.420409 39.868009-35.795251 85.441974-35.795251 131.98194 0 69.700455 27.143197 135.228891 76.428693 184.514387 49.285496 49.28652 114.813932 76.428693 184.514387 76.428693 69.700455 0 135.228891-27.142174 184.514387-76.428693 49.285496-49.285496 76.428693-114.813932 76.428693-184.514387 0-46.546106-12.378935-92.127234-35.80753-132.00036-0.850367-1.13587-1.62194-2.352581-2.293229-3.656273-0.698918-1.357927-68.825528-132.842541-223.297692-352.789928-159.857824 218.394009-220.945111 349.712847-221.872227 351.72569C288.890596 283.695662 287.937898 285.275647 286.85217 286.721579zM512 229.391872c104.387465 0 189.311647 84.925205 189.311647 189.311647 0 104.386442-84.924181 189.311647-189.311647 189.311647-104.386442 0-189.311647-84.925205-189.311647-189.311647C322.688353 314.317077 407.613558 229.391872 512 229.391872zM512 556.849856c76.17389 0 138.146337-61.972447 138.146337-138.146337s-61.972447-138.146337-138.146337-138.146337-138.146337 61.972447-138.146337 138.146337S435.825087 556.849856 512 556.849856z"  horiz-adv-x="1024" />

    
    <glyph glyph-name="qiche" unicode="&#58961;" d="M949.331905 326.723505c-3.657296 48.948829-35.241642 92.183516-80.490196 112.342648l-40.647769 191.108572c-14.877849 69.88772-85.074607 126.727263-156.523893 126.727263L351.41 756.901988c-71.450309 0-141.66651-56.838519-156.523893-126.727263l-40.667212-191.108572c-45.249577-20.178575-76.813456-63.393819-80.471776-112.342648l-9.205663-122.597199c-3.945869-52.668547 26.01449-100.158141 73.031317-119.370715 10.809183-42.331108 48.989761-73.217558 94.198405-73.217558 42.002626 0 77.757968 26.221198 91.361801 64.052828l376.812041 0c13.604856-37.83163 49.359174-64.052828 91.342358-64.052828 45.208645 0 83.429131 30.886451 94.238314 73.217558 47.01785 19.212574 76.956719 66.681702 72.991408 119.370715L949.331905 326.723505zM854.949304 132.265652c-11.896958-2.774183-20.50808-13.08911-21.125133-25.296129-1.12973-22.830985-19.809161-40.72861-42.535769-40.72861-22.151509 0-40.359196 16.808828-42.332131 39.105646-1.233084 14.117532-13.068643 24.925692-27.248597 24.925692L301.351907 130.272251c-14.178931 0-25.995047-10.80816-27.248597-24.925692-1.972934-22.296819-20.159132-39.105646-42.331108-39.105646-22.707165 0-41.385573 17.877159-42.516326 40.72861-0.596588 12.20702-9.227152 22.521946-21.104667 25.296129-31.358195 7.274684-51.517327 35.139312-49.071625 67.771523l9.205663 122.576733c2.384303 31.851429 26.406416 60.763922 58.44204 70.278623 10.43977 3.123131 18.041912 12.123109 19.357883 22.974247 0.164752 1.561565 0.287549 3.14462 0.410346 4.685719 0.062422 0.801249 0.062422 1.622964 0.205685 2.363837l41.674145 195.875133c9.617032 45.229111 56.797587 83.409688 103.034655 83.409688l320.260048 0c46.215578 0 93.397157-38.180578 103.034655-83.409688l41.652655-195.85569c0.165776-0.821715 0.165776-1.622964 0.227174-2.424212 0.102331-1.520633 0.226151-3.042289 0.410346-4.583388 1.274016-10.850116 8.898671-19.911492 19.379373-23.035646 32.015158-9.514701 56.037271-38.427194 58.420551-70.278623l9.187243-122.576733C906.446165 167.42543 886.266567 139.540336 854.949304 132.265652zM300.858674 413.256324l421.342234 0c10.151197 0 18.885116 3.759627 24.248264 10.233062 5.794983 6.67912 8.137331 15.823384 6.616698 25.749454-0.122797 0.656963-0.245593 1.314948-0.390903 1.971911l-33.103956 143.846152c-4.152577 22.685675-26.591635 41.632189-49.689702 41.632189L353.218182 636.689093c-23.097044 0-45.578058-18.946514-49.728588-41.632189l-33.084513-143.846152c-0.164752-0.656963-0.287549-1.314948-0.38988-1.971911-1.541099-9.925047 0.801249-19.069311 6.26775-25.358551C281.994024 417.016974 290.707476 413.256324 300.858674 413.256324zM356.608396 581.986213l309.863257 0 26.220175-114.028033L330.367755 467.95818 356.608396 581.986213zM267.917424 319.571618c-34.131355 0-61.811788-27.679409-61.811788-61.811788 0-34.151821 27.680433-61.811788 61.811788-61.811788 34.132378 0 61.792345 27.659967 61.792345 61.811788C329.709769 291.892209 302.049802 319.571618 267.917424 319.571618zM755.162624 319.571618c-34.132378 0-61.811788-27.679409-61.811788-61.811788 0-34.151821 27.679409-61.811788 61.811788-61.811788 34.151821 0 61.810764 27.659967 61.810764 61.811788C816.973388 291.892209 789.314445 319.571618 755.162624 319.571618z"  horiz-adv-x="1024" />

    
    <glyph glyph-name="icon" unicode="&#58955;" d="M762.26887812-77.70520406000003c-5.45965875 0-10.92123562 0-16.38089343 0-11.32320281 4.84183688-23.16541406 8.74159312-33.87847032 14.68284469-63.76604625 35.35586906-127.30568719 71.1165825-190.79352187 106.968435-5.38962562 3.04497563-9.42081281 3.075675-14.79700781 0.01630875-39.17791781-22.29240563-78.20137969-44.89947844-117.93955688-66.15962344-35.35011281-18.91261688-67.99581844-43.09877906-106.72763906-55.50700594-5.46061781 0-10.92123562 0-16.38185344 0-1.97434125 0.67730062-3.90838969 1.53304031-5.93165812 2.00695969-33.88902281 7.94149594-56.13442125 39.978015-50.75247 74.38604625 12.86967469 82.28245219 26.03195063 164.51885625 39.43790156 246.7149675 0.97374 5.97578813-0.48926812 9.535935-4.37655281 13.53546281-21.13830844 21.74941406-42.056925 43.71084375-63.07051782 65.58017625-35.30214469 36.74212875-70.71557438 73.37776969-105.89108625 110.24077688-18.32645437 19.20617813-23.62782 42.2459175-16.06910531 67.32619312 7.2891375 24.18328406 24.19575563 39.45996656 48.94505531 45.24100688 9.11765813 2.13071531 18.51160875 3.08718656 27.78851907 4.52333343 68.23949344 10.56531656 136.46076 21.24479625 204.74630156 31.50024282 7.90599938 1.18767469 11.70694313 4.83512156 14.91213 11.83261781 32.41354406 70.75778625 65.23097344 141.32945906 97.79129719 212.02009031 6.69721969 14.53990219 16.2935925 26.35812938 30.6963075 33.49856813 6.96295875 3.45174 14.66461781 5.41265063 22.03242187 8.04606468 5.45965875 0 10.92123562 0 16.38089344 0 30.7855275-6.24056906 46.9141125-27.12369 59.1045675-54.6128925 29.83193437-67.26575344 61.46552625-133.73045063 92.18773687-200.60479031 2.62478063-5.71292625 5.67359344-8.75598375 12.38712188-9.76905656 73.07077781-11.02772344 146.03506781-22.75864969 219.12887062-33.62616188 22.88144625-3.40185375 42.82536469-10.67756062 56.13442125-30.83733187 17.9532675-27.189885 14.09092594-61.48855031-9.95708906-86.54580188-55.65378656-57.99076219-111.41118281-115.88271187-166.90667719-174.02888812-2.68426031-2.81185312-5.09126813-7.93478063-4.53292687-11.49588563 12.58474781-80.18243625 25.04478-160.39077469 38.75388469-240.38326031 7.88009719-45.97490906-19.92664969-74.48294062-46.58601469-81.6703875C768.54590187-75.68577281 765.42034062-76.74201656000002 762.26887812-77.70520406000003zM753.47739875-10.237027499999954c-0.18419531 3.96882938-0.0546825 6.63006469-0.465285 9.204-12.73152844 79.53679406-25.29325125 159.1042875-38.42003156 238.57776469-4.23456937 25.63190156 2.24871562 46.98510375 20.30751187 65.64637218 54.83546156 56.66206313 109.34570344 113.64071156 163.960515 170.51670938 2.35904063 2.45785313 4.50030844 5.12388562 7.60572375 8.67731719-76.96381875 11.9582925-151.96576688 24.269625-227.19604125 34.98460031-31.05990094 4.42164187-52.15407937 18.54806437-65.19068062 47.60676281-31.10690906 69.34466437-63.55882688 138.0858975-95.48502094 207.06121219-1.31430844 2.83679625-2.81185312 5.5862925-4.85430844 9.62515406-2.15469937-4.45138219-3.63785344-7.39466625-5.02027593-10.38399937-32.66873063-70.63498969-65.36816063-141.25654781-97.96589907-211.924155-9.81990188-21.28892625-25.75757625-35.61201469-48.89133187-39.43022625-59.15925-9.76330031-118.47967125-18.54230813-177.7329375-27.73959282-20.47251938-3.17832469-40.93448625-6.42380438-63.25375406-9.93118687 3.69637406-3.98705719 6.05541469-6.614715 8.49791812-9.15795094 54.84121781-57.07842094 109.62295594-114.21344344 164.579295-171.18249844 16.28591812-16.880715 23.45225906-36.82079531 19.84414594-59.8125675-10.89245531-69.40414406-22.3557225-138.71906813-33.54461719-208.07620406-2.29668281-14.23770656-4.3698375-28.51090969-6.83152781-44.6346975 4.69026 2.45689406 7.61052 3.89304094 10.44635719 5.48460188 64.47404625 36.15884438 129.04498781 72.14788406 193.35018843 108.60412593 24.67447031 13.98827625 48.46633969 14.04391781 73.15999782 0.03549563 64.03274625-36.32289281 128.33602781-72.16994906 192.54145687-108.18968719C746.0155775-6.414978750000046 749.20253656-7.99406812999996 753.47739875-10.237027499999954z"  horiz-adv-x="1024" />

    
    <glyph glyph-name="zuobiao1" unicode="&#58954;" d="M532.465674 571.630659c79.918457 0 144.692315-64.773858 144.692315-144.692315S612.384131 282.246028 532.465674 282.246028s-144.692315 64.773858-144.692315 144.692315S452.547217 571.630659 532.465674 571.630659zM849.888278 426.938343c0 175.18617-142.134106 317.320276-317.422604 317.320276S215.04307 602.124513 215.04307 426.938343c0-64.05756 18.930748-123.510343 51.573499-173.446587L266.104927 253.491756l237.913461-380.149895c5.116419-10.437494 15.963226-17.60048 28.447287-17.60048s23.22854 7.162986 28.447287 17.60048l237.913461 380.149895L798.212451 253.491756C830.855201 303.428 849.888278 362.880783 849.888278 426.938343z"  horiz-adv-x="1024" />

    
    <glyph glyph-name="yonghu1" unicode="&#58905;" d="M614.609471 857.58555433c-140.353608 0-254.528997-114.171296-254.528997-254.517741 0-96.968495 54.526871-181.433212 134.525879-224.381373C328.009034 327.32260833 206.600917 171.93663232999995 206.600917-11.297598669999957c0-13.427824 10.872628-24.300452 24.305569-24.300452 13.427824 0 24.301476 10.872628 24.301476 24.300452 0 198.157105 161.238264 359.390253 357.600491 359.463931 2.601244-0.267083 5.158487-0.083911 7.599072 0.476861 137.667429 3.091408 248.709455 116.034736 248.709455 254.42462C869.115955 743.4142583299999 754.943636 857.58555433 614.609471 857.58555433zM614.609471 397.17246633c-113.557312 0-205.922976 92.361571-205.922976 205.895347 0 113.555266 92.365664 205.915813 205.922976 205.915813 113.536846 0 205.906603-92.360548 205.906603-205.915813C820.516074 489.53506033 728.146317 397.17246633 614.609471 397.17246633zM903.505183 276.75797933c-9.464559 9.516748-24.845874 9.516748-34.360576 0.046049-9.493212-9.465582-9.515724-24.845874-0.050142-34.361599 67.666122-67.87283 104.922654-157.983127 104.922654-253.740028 0-13.427824 10.866489-24.300452 24.301476-24.300452 13.427824 0 24.300452 10.872628 24.300452 24.300452C1022.619048 97.41742833 980.331943 199.72144232999995 903.505183 276.75797933L903.505183 276.75797933zM357.517091 390.95383433c0 0.031722-0.004093 0.061398-0.004093 0.094144 0 0.031722 0.004093 0.062422 0.004093 0.093121 0 13.434987-10.864442 24.303522-24.301476 24.303522-88.163969 0-159.8875 76.630285-159.8875 170.820504 0 94.191242 71.723531 170.815387 159.8875 170.815387 13.43601 0 24.301476 10.872628 24.301476 24.301476 0 13.434987-10.864442 24.300452-24.301476 24.300452-114.960265 0-208.489428-98.435916-208.489428-219.417315 0-80.499405 41.414225-151.002133 102.989629-189.18578C96.61392 350.50049433000004 1.93456 219.59200233 1.93456 65.78294032999997c0-13.43294 10.872628-24.300452 24.301476-24.300452 13.434987 0 24.306592 10.867512 24.306592 24.300452 0 165.910681 126.799918 300.870442 282.674011 300.870442C346.65265 366.65338233 357.517091 377.51884732999997 357.517091 390.95383433L357.517091 390.95383433zM357.517091 390.95383433"  horiz-adv-x="1024" />

    
    <glyph glyph-name="fenxiang" unicode="&#58960;" d="M768 216.33233332999998c17.328 0 33.5-3.172 48.5-9.5 15.001-6.343 28.156-15.172 39.5-26.5 11.328-11.344 20.156-24.5 26.5-39.5 6.329-15.001 9.5-31.172 9.5-48.5 0-17.344-3.172-33.5-9.5-48.5-6.343-15.001-15.172-28.172-26.5-39.5-11.344-11.344-24.5-20.172-39.5-26.5-15.001-6.343-31.172-9.5-48.5-9.5-17.344 0-33.5 3.156-48.5 9.5-15.001 6.329-28.172 15.156-39.5 26.5-11.344 11.328-20.172 24.5-26.5 39.5-6.343 15.001-9.5 31.156-9.5 48.5 0 2.656 0 5.156 0 7.5 0 2.329 0.329 4.5 1.001 6.5 0 2.656 0.156 5.156 0.5 7.5 0.329 2.329 0.828 4.5 1.5 6.5l-304 177.001c-6-5.344-12.172-10.172-18.5-14.5-6.343-4.343-13.172-7.844-20.5-10.5-7.344-3.344-15.001-5.671-23.001-7.001-8-1.344-16.343-2-25.001-2-17.344 0-33.844 3.328-49.5 10-15.671 6.656-29.172 15.657-40.5 27.001-12 12-21.344 25.657-28 41.001-6.672 15.328-10 32-10 50 0 17.328 3.328 33.828 10 49.5 6.656 15.657 16 29.156 28 40.5 11.328 12 24.828 21.328 40.5 28 15.657 6.656 32.156 10 49.5 10 8.656 0 17.001-0.844 25.001-2.5 8-1.671 15.657-4.172 23.001-7.5 7.328-2.672 14.156-6.172 20.5-10.5 6.329-4.343 12.5-9.172 18.5-14.5l301.001 176c-0.672 2-1.172 4.329-1.5 7.001-0.343 2.656-0.844 5.001-1.5 7.001 0 2.656-0.172 5.328-0.5 8-0.343 2.656-0.5 5.328-0.5 8 0 17.328 3.328 33.828 10 49.5 6.656 15.657 16 29.156 28 40.5 11.328 11.328 24.828 20.5 40.5 27.5 15.657 7.001 32.156 10.5 49.5 10.5 17.328 0 33.828-3.5 49.5-10.5 15.657-7.001 29.156-16.172 40.5-27.5 12-11.344 21.328-24.844 28-40.5 6.656-15.671 10-32.172 10-49.5 0-18-3.344-34.844-10-50.5-6.672-15.671-16-29.172-28-40.5-11.344-11.344-24.844-20.343-40.5-27.001-15.671-6.672-32.172-10-49.5-10-8.672 0-17.001 0.656-25.001 2-8 1.328-15.671 3.657-23.001 7.001-7.344 2.656-14.172 6.156-20.5 10.5-6.343 4.329-12.5 9.156-18.5 14.5l-300.999-175.001c0.656-2.672 1.156-5.172 1.5-7.5 0.329-2.343 0.828-4.844 1.5-7.5 0-2.672 0.156-5.172 0.5-7.5 0.329-2.343 0.5-4.844 0.5-7.5 0-2.672-0.172-5.344-0.5-8-0.343-2.672-0.5-5.344-0.5-8-0.672-2-1.172-4.343-1.5-7.001-0.343-2.672-0.844-5.001-1.5-7.001l304-177.001c5.328 4.656 11.328 9.001 18 13.001 6.656 4 13.328 7.657 20 11.001 7.328 2.656 14.828 4.656 22.5 6 7.657 1.327 15.5 1.999 23.5 1.999z"  horiz-adv-x="1024" />

    
    <glyph glyph-name="ditu" unicode="&#59034;" d="M953.718819 564.165472c4.053316-6.592139 6.324032-13.798261 8.863878-20.516266 3.547803-12.789281 6.338359-25.703405 6.338359-38.634926l0-570.667168c0-36.601616-15.706727-70.302159-40.022529-94.616938-23.812335-23.937179-56.990992-38.745443-93.972255-38.745443L173.302533-199.015268c-36.854373 0-70.03303 14.809287-94.476745 38.745443-24.315802 24.314779-38.886659 58.015322-38.886659 94.616938l0 570.667168c0 36.22197 14.570857 69.795623 38.886659 93.860714 24.443715 24.442692 57.622372 39.124066 94.476745 39.124066l322.076416 0c11.275811 36.600593 31.41243 68.771293 57.622372 94.995561l1.261737 0.757247C596.570629 775.5396 655.327848 802.268358 719.416492 802.268358c64.338331 0 123.095549-26.728758 165.657924-69.27476 42.546002-42.561351 68.644403-100.94097 68.644403-166.037571L953.718819 564.165472zM718.909955 680.559389 718.909955 680.559389c31.918967 0 60.540841-13.434987 81.560574-33.952276 20.516266-20.769023 33.683147-49.516764 33.683147-80.928171 0-32.422434-13.166881-60.665685-33.683147-81.938174-21.019733-20.516266-49.641607-33.17968-81.560574-33.17968-31.664164 0-60.285015 12.663414-81.304747 33.17968-20.518313 21.272489-33.180703 49.516764-33.180703 81.938174 0 31.41243 12.662391 60.160171 33.180703 80.928171C658.62494 667.124402 687.245791 680.559389 718.909955 680.559389M770.083451 616.472791 770.083451 616.472791c-12.678764 12.789281-30.908964 20.516266-51.173496 20.516266-20.011776 0-37.987173-7.728008-50.91767-20.516266-12.664438-12.915148-21.020756-31.28554-21.020756-50.792826 0-20.264533 8.356318-38.367843 21.020756-51.66059 12.930497-12.93152 30.905894-21.037129 50.91767-21.037129 20.264533 0 38.494733 8.105608 51.173496 21.037129 12.916171 13.293771 21.020756 31.397081 21.020756 51.66059C791.104207 585.186228 782.999622 603.557644 770.083451 616.472791M484.229005 566.703271 484.229005 566.703271 173.302533 566.703271c-16.58984 0-32.67519-6.969739-43.554982-18.11866-11.653411-11.400654-18.24555-26.966165-18.24555-43.571355l0-570.667168c0-16.85897 6.592139-32.673144 18.24555-43.317575 10.880815-11.402701 26.965142-18.372439 43.554982-18.372439l661.623739 0c16.97051 0 32.423457 6.970762 44.062542 18.372439 11.148921 10.644431 18.244526 26.458605 18.244526 43.317575L897.23334 413.707738c-24.316825-28.243251-55.225789-50.66696-90.170672-64.591087l-71.435982-87.395466c-7.349385-9.367345-20.766976-10.881838-30.134321-3.154853-1.025353 0.50449-1.782599 1.51347-2.791579 3.154853l-0.505513 0.251733-71.434959 87.143733c-42.548048 17.34504-79.021751 46.598294-104.741529 83.971483C499.557108 471.204244 484.229005 517.440287 484.229005 566.703271M855.191828 702.337391 855.191828 702.337391c-34.960233 35.088146-83.08837 56.865125-135.775336 56.865125S618.855168 737.929004 584.413751 703.347394l-1.276063-1.010003c-34.82004-34.692127-55.840796-82.442664-55.840796-135.381363 0-40.653909 12.285814-78.531588 34.062793-109.425202 21.524223-31.664164 53.190433-56.611346 89.917916-70.551846 4.051269-1.261737 6.843872-3.422959 9.381671-6.702656l58.758242-71.435982 57.999972 71.435982c2.286066 3.027963 5.583159 5.439896 9.383718 6.702656 36.979216 13.9405 68.391646 38.886659 90.674139 70.551846 21.020756 30.893614 33.682124 68.771293 33.682124 109.425202C911.156444 619.894727 889.633245 667.644241 855.191828 702.337391M574.02003 296.177951 574.02003 296.177951c8.358365 8.610098 22.047132 8.610098 30.404474 0 8.106632-7.726985 8.106632-21.526269 0-29.757744l-58.646702-59.153238 122.214483-122.213459 136.53156 136.390343c8.610098 7.853875 22.029736 7.853875 30.402427 0 8.612145-8.231475 8.612145-22.534226 0-30.260188l-136.53156-136.78534 45.843094-45.590338c8.357342-8.609075 8.357342-22.550599 0-30.655184-8.611122-8.232498-22.029736-8.232498-30.388101 0l-59.782571 59.908438-0.503467 0.251733 0 0.505513-0.505513 0.25071-0.50449 0.647753-0.772596 0.251733 0 0.503467-136.642077 136.39239L269.054317-69.075847c-8.357342-8.231475-21.776979-8.231475-29.882588 0-8.878205 8.610098-8.878205 22.155603 0 30.388101l245.689678 245.955738-101.44546 101.06786-164.507728-164.649967c-7.979742-7.852852-21.794375-7.852852-30.277584 0-8.358365 8.736988-8.358365 22.298865 0 30.278607l164.396187 164.759461L248.790808 442.959969c-8.105608 8.611122-8.105608 22.046109 0 30.151717 8.484232 8.735965 22.282492 8.735965 30.009478 0l118.806873-118.302383 0.505513-0.252757 0.630357-0.252757 0.50449-0.50449 0-0.505513 115.89045-115.762537L574.02003 296.177951z"  horiz-adv-x="1024" />

    
    <glyph glyph-name="zhuizong" unicode="&#59069;" d="M321.6 268.96c13.76-80.32 77.12-143.68 157.44-157.44L479.04 176.8c-45.12 11.808-80.32 47.04-91.84 92.128L321.6 268.928zM543.04 111.488c80.32 13.792 143.68 77.12 157.44 157.44L635.2 268.928c-11.808-45.12-47.04-80.32-92.128-92.128L543.072 111.488zM700.512 332.96c-13.792 80.32-77.12 143.68-157.44 157.44l0-65.6c45.12-11.52 80.32-46.72 92.128-91.84L700.512 332.96zM479.04 490.4c-80.32-13.76-143.68-77.12-157.44-157.44l65.6 0c11.52 45.12 46.72 80.32 91.84 91.84L479.04 490.4zM160.64 268.96c15.04-168.96 149.44-303.36 318.4-318.4l0 70.72c-129.92 14.4-233.28 117.792-247.68 247.68L160.64 268.96zM543.04-49.44c168.96 15.04 303.36 149.44 318.4 318.4l-70.368 0c-14.752-129.888-118.112-233.28-248-247.68L543.072-49.44zM861.44 332.96c-15.04 168.96-149.44 303.36-318.4 318.72l0-70.72c129.888-14.72 233.28-118.08 248-248L861.44 332.96zM479.04 651.68c-168.96-15.36-303.36-149.76-318.4-318.72l70.72 0c14.4 129.92 117.76 233.28 247.68 248L479.04 651.68zM0 268.96c16-257.28 221.76-463.008 479.04-479.008l0 64.32C256.96-130.4 79.68 46.88 64.32 268.96L0 268.96zM543.04-210.048c257.28 16 463.008 221.76 479.008 479.008l-64.32 0C942.4 46.88 765.12-130.4 543.04-145.76L543.04-210.048zM1022.048 332.96C1006.048 590.24 800.32 796 543.04 812l0-64c222.08-15.68 399.36-192.96 414.688-415.04L1022.048 332.96zM479.04 812C221.76 796 16 590.24 0 332.96l64.32 0C79.68 555.04 257.28 732.32 479.04 748L479.04 812z"  horiz-adv-x="1024" />

    
    <glyph glyph-name="zhongdian" unicode="&#59047;" d="M512 754.78857422C365.73129427 754.78857422 247.15480213 636.21208207 247.15480213 489.94337634s264.46382081-476.73195056 264.46382083-476.73195056S776.84519787 343.6746699 776.84519787 489.94337634 658.26870573 754.78857422 512 754.78857422zM374.28049692 521.72479987l52.96903941 95.34427126 21.18761592-10.5938076-52.96903942-84.75046367 31.7814235 0 31.78142352 42.37523184 21.18761591-10.59380761c0 0-21.36771053-32.03567512-39.31362117-58.97572887C427.885165 475.00610722 416.65572875 458.16195212 416.65572875 458.16195212l42.37523183 0 10.5938076-21.18761591-74.15665535-10.59380761-10.5938076 21.18761592 31.78142352 52.96903943-42.37523183 0L374.28049692 521.72479987zM384.87430523 362.81768086l-10.59380759 21.18761591 95.34427125 21.18761592 10.59380761-21.18761591L384.87430523 362.81768086zM617.93807958 352.22387326l-127.12569477 21.18761591 21.18761592 21.18761592 127.12569476-21.18761592L617.93807958 352.22387326zM522.59380759 436.9743362l21.18761591 21.18761592 84.75046367-31.78142352-21.18761591-21.18761591L522.59380759 436.9743362zM649.71950308 447.56814452c0 0-19.86339015 5.96431382-31.7814235 10.59380759s-42.37523183 21.18761592-42.37523183 21.18761592l-21.18761592 0c0 0-27.15192974-13.24225987-42.37523183-21.18761592s-31.7814235-10.59380759-31.7814235-10.59380759l-10.59380761 21.18761591c0 0 9.93699185 0.66741001 31.78142352 10.5938076s42.37523183 21.18761592 42.37523183 21.18761592l-31.78142351 42.37523183-21.18761592-42.37523183-21.18761592 21.18761591c0 0 23.50765958 34.1014679 31.78142352 52.96903943s21.18761592 42.37523183 21.18761591 42.37523184l21.18761591-10.5938076-10.59380759-21.18761591 116.53188718 0 0-21.18761592-63.56284775-63.56284775c0 0 27.15192974-14.56648562 42.37523182-21.18761592s31.7814235-10.59380759 31.78142353-10.59380759L649.71950308 447.56814452zM522.59380759 564.1000317l42.37523184-52.96903943 52.96903943 52.96903943L522.59380759 564.1000317z"  horiz-adv-x="1024" />

    
    <glyph glyph-name="qidian" unicode="&#59048;" d="M512 754.78857422C365.73129427 754.78857422 247.15480213 636.21208207 247.15480213 489.94337634s264.4638208-476.73195056 264.46382083-476.73195056S776.84519787 343.6746699 776.84519787 489.94337634 658.26870573 754.78857422 512 754.78857422zM522.59380759 532.31860818l95.34427127 1e-8 0 52.96903942-95.34427126 0 0 21.18761592 116.53188716 0 1e-8-105.93807958-21.18761591 0 0 10.59380758-74.15665536 0c0 0 0-51.64481365 0-63.56284774s3.97267803-21.18761592 10.59380761-21.18761592 40.3941896 0 52.96903943 0 21.18761592 7.28853959 21.18761591 21.18761593 0 31.7814235 0 31.78142352l21.18761592-1e-8c0 0 0-31.12460776 0-42.37523184s-14.56648562-31.7814235-31.78142351-31.78142351-48.9963614 0-63.56284775 0-31.7814235 20.53079944-31.78142351 42.37523183S522.59380759 532.31860818 522.59380759 532.31860818zM660.31331069 352.22387326c0 0-159.57452903 0-180.09473492 0s-74.15665535 42.37523183-74.15665535 42.37523183c-3.97267803-23.17925169-21.18761592-42.37523183-21.18761591-42.37523183l-10.59380759 21.18761592c0 0 21.18761592 35.75410154 21.18761591 52.96903942s0 52.96903942 0 52.96903943l21.18761592 0c0 0 0-43.6994576 0-52.96903943s31.7814235-31.7814235 31.7814235-31.78142351L448.43715225 500.53718395l-74.15665533 1e-8 0 21.1876159 63.56284773 0 0 42.37523184-52.96903942 0 0 21.18761591 52.96903943 0 0 42.37523184 21.18761592 0 0-42.37523184 42.37523182 0 0-21.18761591-42.37523182 0 0-42.37523184 52.96903942 0 0-21.18761591-42.37523182 1e-8 0-42.37523184 42.37523182 0 0-21.18761591-42.37523182 0 0-52.96903944c0 0 1.32422576-10.59380759 31.7814235-10.59380759s158.90711901 0 158.907119-1e-8L660.31331069 352.22387326z"  horiz-adv-x="1024" />

    
    <glyph glyph-name="faxian" unicode="&#58924;" d="M511.466 626.431c169.452 0 315.308-99.391 383.565-242.84h66.514c-72.089 177.91-246.292 303.526-450.079 303.526-203.755 0-377.958-125.617-450.047-303.526h66.515c68.256 143.449 214.111 242.84 383.532 242.84zM511.466 140.752c-169.421 0-315.277 99.391-383.532 242.84h-66.515c72.088-177.941 246.291-303.558 450.047-303.558 203.786 0 377.99 125.617 450.079 303.558h-66.514c-68.257-143.449-214.111-242.84-383.565-242.84zM349.594 383.576c0-89.412 72.474-161.886 161.885-161.886 89.413 0 161.886 72.474 161.886 161.886 0 89.413-72.473 161.886-161.886 161.886-89.412 0-161.885-72.473-161.885-161.886zM612.678 383.576c0-55.88-45.32-101.198-101.199-101.198s-101.166 45.318-101.166 101.198c0 55.88 45.287 101.199 101.166 101.199s101.199-45.319 101.199-101.199z"  horiz-adv-x="1024" />

    
    <glyph glyph-name="leida" unicode="&#58964;" d="M896.56938502 195.62322014999995L636.34591586 455.89646459 713.61944125 533.26163732C716.41278084 532.76729505 719.20606867 532.27294658 722.12296505 532.27294658 756.26077308 532.27294658 783.92206266 559.9563313 783.92206266 594.0662174 783.92206266 628.1760981 756.26077308 655.85948281 722.12296505 655.85948281 687.98520878 655.85948281 660.32391998 628.1760981 660.32391998 594.0662174 660.32391998 591.1001359100001 660.79362491 588.38123522 661.18913272 585.66233068L583.91555478 508.29715793 323.69208563 768.57040392C309.08276553 783.1536151 285.42612541 783.1536151 270.81680453 768.57040392 187.23972893 685.02590595 141.21179502 573.79802405 141.21179502 455.64929383 141.18711518 374.82370196 163.26172482 297.45852922999995 203.72776367 229.73310623999998 153.34913877 213.9140274 116.4921875 167.69266389999996 116.4921875 112.07872372999998 116.4921875 43.858956939999985 171.83944573-11.5078125 240.09033017-11.5078125 295.61060917-11.5078125 342.00931852 25.320973529999947 357.63214052 75.74427999 425.36390785 35.20789866999996 502.73631019 13.209496130000048 583.69306852 13.209496130000048 701.87760531 13.209496130000048 812.99230865 59.18368810000004 896.56938502 142.72818452 911.15397276 157.55856723 911.15397276 181.04000896000002 896.56938502 195.62322014999995L896.56938502 195.62322014999995ZM240.09033017 62.64410723000003C212.77513697 62.64410723000003 190.6510626 84.88968668999996 190.6510626 112.07872372999998 190.6510626 139.51493692999998 212.77513697 161.51333946 240.09033017 161.51333946 267.38079102 161.51333946 289.52954524 139.51493692999998 289.52954524 112.07872372999998 289.52954524 84.88968668999996 267.38079102 62.64410723000003 240.09033017 62.64410723000003L240.09033017 62.64410723000003ZM583.69306852 88.10293431000002C485.48204472 88.10293431000002 393.1294943 126.16758721999997 323.69208563 195.62322014999995 254.22994537 265.07885307000004 215.98866422 357.52158546 215.98866422 455.64929383 215.98866422 541.4183533 245.08369511 622.49111593 298.57691776 687.99198202L815.90925756 170.65874076C750.5011249 117.02218590999996 669.34661344 88.10293431000002 583.69306852 88.10293431000002L583.69306852 88.10293431000002Z"  horiz-adv-x="1024" />

    
    <glyph glyph-name="xitongcanshu" unicode="&#59065;" d="M267.07676602 481.40442038c4.34517861-4.34517861 10.21116973-6.80744648 16.3668394-6.80744649s12.02166081 2.46226788 16.36683941 6.80744648l107.6155901 107.6155901c9.05245543 9.05245543 9.05245543 23.75364304 0 32.80609846-9.05245543 9.05245543-23.75364304 9.05245543-32.80609847 0L283.44360542 530.57735825l-51.34552717 51.34552717c-9.05245543 9.05245543-23.75364304 9.05245543-32.80609846 0-9.05245543-9.05245543-9.05245543-23.75364304 0-32.80609846L267.07676602 481.40442038zM435.30759763 708.44000244L171.98977422 708.44000244l-0.65177678 0c-16.65651799 0-30.12657166-13.47005367-30.12657166-30.34383059L141.21142578 414.77834844l0-0.86903571c0-16.65651799 13.47005367-29.90931273 30.12657166-29.90931273l263.10056448 0 0.86903571 0c16.65651799 0 30.34383059 13.25279475 30.34383059 29.90931273l0 263.67992163 0 0.43451786C465.65142823 694.96994877 451.96411562 708.44000244 435.30759763 708.44000244zM419.30285644 430.34857177L187.55999756 430.34857177l0 231.7428589 231.74285888-1e-8L419.30285644 430.34857177zM558.34857177 569.39428711l301.26571656 0c12.81827689 0 23.17428589 10.35600901 23.17428589 23.17428589s-10.35600901 23.17428589-23.17428589 23.17428588L558.34857177 615.7428588800001c-12.81827689 0-23.17428589-10.35600901-23.17428588-23.17428588S545.5302949 569.39428711 558.34857177 569.39428711zM859.61428833 476.69714356L558.34857177 476.69714356c-12.81827689 0-23.17428589-10.35600901-23.17428588-23.1742859s10.35600901-23.17428589 23.17428588-23.17428588l301.26571656 0c12.81827689 0 23.17428589 10.35600901 23.17428589 23.17428588S872.43256522 476.69714356 859.61428833 476.69714356zM267.07676602 110.61584616000005c4.49001789-4.49001789 10.42842865-6.80744648 16.3668394-6.80744648s11.87682152 2.24500895 16.36683941 6.80744649l107.6155901 107.61559008c9.05245543 9.05245543 9.05245543 23.75364304 0 32.80609846-9.05245543 9.05245543-23.75364304 9.05245543-32.80609847 0L283.44360542 159.78878403l-51.34552717 51.34552717c-9.05245543 9.05245543-23.75364304 9.05245543-32.80609846 0-9.05245543-9.05245543-9.05245543-23.75364304 0-32.80609846L267.07676602 110.61584616000005zM435.30759763 337.65142822999996L171.98977422 337.65142822999996l-0.65177678 0c-16.65651799 0-30.12657166-13.47005367-30.12657166-30.3438306l0-263.24540376 0-0.86903572c0-16.65651799 13.47005367-29.90931273 30.12657166-29.90931272l263.10056448 0 0.86903571 0c16.65651799 0 30.34383059 13.25279475 30.34383059 29.90931272L465.65142823 306.87307977l0 0.43451787C465.65142823 324.18137455 451.96411562 337.65142822999996 435.30759763 337.65142822999996zM419.30285644 59.559997560000056L187.55999756 59.559997560000056l0 231.74285888 231.74285888 0L419.30285644 59.559997560000056zM859.61428833 244.95428467L558.34857177 244.95428467c-12.81827689 0-23.17428589-10.35600901-23.17428588-23.17428589s10.35600901-23.17428589 23.17428588-23.17428589l301.26571656 0c12.81827689 0 23.17428589 10.35600901 23.17428589 23.17428589S872.43256522 244.95428467 859.61428833 244.95428467zM859.61428833 105.90856932999998L558.34857177 105.90856932999998c-12.81827689 0-23.17428589-10.35600901-23.17428588-23.17428589s10.35600901-23.17428589 23.17428588-23.17428588l301.26571656 0c12.81827689 0 23.17428589 10.35600901 23.17428589 23.17428588S872.43256522 105.90856932999998 859.61428833 105.90856932999998z"  horiz-adv-x="1024" />

    
    <glyph glyph-name="tuichu1" unicode="&#58889;" d="M729.114366 107.774574c-3.944496 0-7.966837 1.209013-11.417511 3.717046-8.686893 6.333331-10.58677 18.474547-4.285063 27.160223l178.205362 244.781356L713.408143 628.286318c-6.298058 8.686893-4.39818 20.826892 4.322769 27.121301 8.613914 6.298058 20.78797 4.400613 27.082379-4.285063l186.478709-256.275494c4.972279-6.788231 4.972279-16.004219 0-22.832589L744.813291 115.776683C741.023266 110.54533 735.103481 107.774574 729.114366 107.774574L729.114366 107.774574 729.114366 107.774574zM729.114366 107.774574M729.102203 100.581311c-5.64125 0-11.048968 1.773381-15.617432 5.127967-11.818893 8.626077-14.455855 25.271292-5.877214 37.158299l175.158503 240.568055L707.633099 624.075449c-4.19384 5.782342-5.877214 12.819917-4.758208 19.836815 1.123871 6.99622 4.895651 13.148321 10.6561 17.29959 11.396833 8.300106 28.833867 5.546378 37.08532-5.897892l186.464113-256.232924c6.806476-9.349782 6.833235-21.91549 0-31.285949L750.595633 111.586492C745.605109 104.68636 737.564078 100.581311 729.102203 100.581311L729.102203 100.581311zM729.102203 651.956944c-2.585877 0-5.059853-0.817361-7.155557-2.331668-2.679533-1.936367-4.405478-4.758208-4.921194-7.971702-0.53396-3.240252 0.257858-6.484154 2.194225-9.164903l181.263167-249.05304L719.192918 134.47868c-3.935982-5.503807-2.726969-13.195757 2.728185-17.205934 5.292169-3.824082 13.195757-2.516547 17.109846 2.702643L925.521821 376.233855c3.123486 4.310606 3.123486 10.092948 0 14.403554L739.030949 646.897091C736.724823 650.068014 733.016291 651.956944 729.102203 651.956944L729.102203 651.956944zM729.102203 651.956944M915.588209 364.012363 433.616493 364.012363c-10.699887 0-19.41962 8.682027-19.41962 19.41962 0 10.729079 8.720949 19.41962 19.41962 19.41962l481.972932 0c10.776515 0 19.424485-8.689325 19.424485-19.41962C935.009046 372.69439 926.364724 364.012363 915.588209 364.012363L915.588209 364.012363 915.588209 364.012363zM915.588209 364.012363M915.588209 356.862887 433.611628 356.862887c-14.662628 0-26.570312 11.912549-26.570312 26.573961 0 14.662628 11.907684 26.575177 26.570312 26.575177l481.976581 0c14.661412 0 26.575177-11.912549 26.575177-26.575177C942.163387 368.775436 930.254486 356.862887 915.588209 356.862887L915.588209 356.862887zM433.611628 395.697262c-6.75904 0-12.26163-5.502591-12.26163-12.26163 0-6.757823 5.502591-12.260414 12.26163-12.260414l481.976581 0c6.762689 0 12.26163 5.502591 12.26163 12.260414 0 6.763905-5.498942 12.26163-12.26163 12.26163L433.611628 395.697262 433.611628 395.697262zM433.611628 395.697262M108.379819-49.534566c-10.695022 0-19.41962 8.686893-19.41962 19.41962L88.960199 797.05189c0 10.733944 8.724598 19.41962 19.41962 19.41962 10.772866 0 19.41962-8.686893 19.41962-19.41962l0-827.161971C127.800655-40.847674 119.152685-49.534566 108.379819-49.534566L108.379819-49.534566 108.379819-49.534566zM108.379819-49.534566M108.379819-56.719315c-14.662628 0-26.575177 11.934443-26.575177 26.622613L81.804641 797.043376c0 14.662628 11.912549 26.575177 26.575177 26.575177 14.661412 0 26.575177-11.912549 26.575177-26.575177l0-827.140078C134.954996-44.784872 123.041231-56.719315 108.379819-56.719315L108.379819-56.719315zM108.379819 809.30379c-6.75904 0-12.26163-5.502591-12.26163-12.26163l0-827.140078c0-6.763905 5.502591-12.26163 12.26163-12.26163s12.26163 5.502591 12.26163 12.26163L120.641449 797.043376C120.641449 803.802416 115.138858 809.30379 108.379819 809.30379L108.379819 809.30379zM108.379819 809.30379M628.211645-49.534566 108.379819-49.534566c-10.695022 0-19.41962 8.686893-19.41962 19.41962s8.724598 19.424485 19.41962 19.424485l519.831826 0c10.768001 0 19.420836-8.690542 19.420836-19.424485S638.983294-49.534566 628.211645-49.534566L628.211645-49.534566 628.211645-49.534566zM628.211645-49.534566M628.211645-56.719315 108.379819-56.719315c-14.662628 0-26.575177 11.934443-26.575177 26.622613 0 14.635869 11.912549 26.575177 26.575177 26.575177l519.831826 0c14.662628 0 26.575177-11.938092 26.575177-26.575177C654.785606-44.784872 642.877922-56.719315 628.211645-56.719315L628.211645-56.719315zM108.379819-17.882507c-6.75904 0-12.26163-5.455154-12.26163-12.214194 0-6.763905 5.502591-12.26163 12.26163-12.26163l519.831826 0c6.763905 0 12.26163 5.497725 12.26163 12.26163 0 6.75904-5.502591 12.214194-12.26163 12.214194L108.379819-17.882507 108.379819-17.882507zM108.379819-17.882507M628.211645 777.627405 108.379819 777.627405c-10.695022 0-19.41962 8.686893-19.41962 19.424485 0 10.733944 8.724598 19.41962 19.41962 19.41962l519.831826 0c10.768001 0 19.420836-8.686893 19.420836-19.41962C647.631265 786.313081 638.983294 777.627405 628.211645 777.627405L628.211645 777.627405 628.211645 777.627405zM628.211645 777.627405M628.211645 770.468199 108.379819 770.468199c-14.662628 0-26.575177 11.913765-26.575177 26.575177 0 14.662628 11.912549 26.575177 26.575177 26.575177l519.831826 0c14.662628 0 26.575177-11.912549 26.575177-26.575177C654.785606 782.381964 642.877922 770.468199 628.211645 770.468199L628.211645 770.468199zM108.379819 809.30379c-6.75904 0-12.26163-5.502591-12.26163-12.26163 0-6.757823 5.502591-12.260414 12.26163-12.260414l519.831826 0c6.763905 0 12.26163 5.502591 12.26163 12.260414 0 6.75904-5.502591 12.26163-12.26163 12.26163L108.379819 809.30379 108.379819 809.30379zM108.379819 809.30379"  horiz-adv-x="1024" />

    
    <glyph glyph-name="geren" unicode="&#58927;" d="M802.08019 252.511293c-41.451064 41.280172-89.99057 72.640414-144.341433 93.193519l-18.266016 6.891967 16.198937 10.903328c13.585413 9.131985 26.28669 19.643386 37.808094 31.162744 48.145533 48.172139 74.631768 112.195292 74.631768 180.304506 0 68.084655-26.486234 132.13339-74.631768 180.303482-48.244794 48.196699-112.246457 74.706469-180.330088 74.706469-68.133773 0-132.182508-26.510794-180.329065-74.706469-48.14758-48.170093-74.633814-112.218828-74.633814-180.303482 0-68.110237 26.486234-132.13339 74.633814-180.28097 11.568477-11.594059 24.26873-22.079878 37.808094-31.187303l16.147772-10.903328-18.216897-6.891967c-54.398958-20.553105-102.939487-51.913347-144.291291-93.193519-77.340459-77.092819-119.875205-179.490977-119.875205-288.364617 0-14.32424 11.667737-25.993001 25.993001-25.993001 14.326287 0 25.993001 11.668761 25.993001 25.993001 0 95.089705 37.071314 184.439686 104.369046 251.614621 67.246567 67.076698 156.747997 104.09787 251.958452 104.22169 96.04752-0.12382 185.498808-37.144992 252.794493-104.22169 67.296709-67.174935 104.418164-156.524916 104.418164-251.614621 0-14.32424 11.616572-25.993001 25.993001-25.993001 14.325263 0 25.994024 11.668761 25.994024 25.993001C921.908322 72.994734 879.3746 175.418474 802.08019 252.511293zM369.596198 431.412846c-38.349423 38.375006-59.46944 89.353051-59.46944 143.555533s21.120017 105.179504 59.46944 143.55451c38.349423 38.349423 89.352027 59.46944 143.555533 59.46944 54.201459 0 105.154945-21.120017 143.504368-59.46944 38.400588-38.375006 59.46944-89.353051 59.46944-143.55451s-21.068851-105.179504-59.46944-143.555533c-38.20309-38.177508-89.007173-59.271942-143.063323-59.443857C458.65249 372.141928 407.847383 393.236362 369.596198 431.412846z"  horiz-adv-x="1024" />

    
    <glyph glyph-name="dianji" unicode="&#59036;" d="M635.29589823 22.989257990000056L394.70996128 22.989257990000056c-28.57910177 0-52.77832066 15.42480469-66.3574217 42.3339844-0.48339861 0.95214875-1.21582036 2.54882847-1.55273432 3.57421877L262.52246112 262.30078146999995c-9.74121066 17.88574236-12.21679679 38.45214861-6.94335904 58.18359384 5.53710938 20.68359397 18.89648421 37.93945308 37.60253912 48.60351554 12.18749986 6.94335903 26.0302733 10.62011708 40.01953139 10.62011708 21.09375025 0 41.16210943-8.27636713 55.97167932-22.47070299l-0.05859387 173.20312495c0 45.51269537 37.61718758 82.52929662 83.86230471 82.52929662s83.86230472-37.01660125 83.86230473-82.52929662l0-141.29882833c142.73437492-12.50976533 144.19921844-12.75878927 145.25390644-12.93457009 44.296875-7.29492222 74.10644559-38.39355474 74.10644561-77.40234351 0-2.76855469 0-9.27246128-43.08105464-214.40917977C720.24218712 38.13574181000001 695.64746119 22.989257990000056 635.29589823 22.989257990000056zM367.96191392 84.39550818999999c4.29199207-8.14453094 12.36328146-17.46093761 26.74804659-17.46093762l240.58593772 0c47.35839823 0 49.48242196 7.58789077 55.16601601 27.87597693 14.97070301 71.55761713 39.55078125 190.16601548 41.79199193 205.04882847-0.65917943 19.87792989-19.58496056 30.07324222-37.30957058 32.98828156-3.793945 0.36621089-99.09667934 8.75976574-161.98242153 14.26757819-11.33789037 0.99609337-20.05371071 10.48828088-20.05371071 21.88476588l0 161.42578137c0 21.26953107-17.91503929 38.58398403-39.91699212 38.58398402s-39.91699213-17.31445295-39.91699213-38.58398402l0.08789079-276.53320327c0-10.66406247-7.64648463-19.79003909-18.14941398-21.65039042-10.44433625-1.86035134-20.80078094 4.08691432-24.46289051 14.10644505l-26.57226577 72.9052737c-10.07812537 15.43945315-32.57812529 21.00585946-49.0136718 11.63085969-8.43750025-4.80468761-14.443359-12.53906227-16.91894515-21.78222662-2.4462892-9.11132815-1.14257804-18.61816411 3.63281263-26.77734353 0.77636716-1.31835963 1.40624965-2.72460929 1.88964827-4.17480434L367.96191392 84.39550818999999zM770.50097625 446.27050816c0.01464847-0.24902315 0.14648466-0.43945321 0.14648466-0.68847637 0-12.14355446-9.84374992-21.9726559-21.97265591-21.9726559-11.96777364 0-21.6210935 9.60937523-21.88476588 21.518555l-0.83496102 0c2.88574241 14.20898433 4.40917981 28.88671878 4.4091798 43.94531258 0 121.34765611-98.37890604 219.72656215-219.72656216 219.72656216-121.34765611 0-219.72656215-98.37890604-219.72656216-219.72656216 0-15.0585938 1.52343738-29.73632827 4.40917981-43.94531258l-0.05859387 0 0 0c0-12.128906-9.84374992-21.9726559-21.9726559-21.97265591-12.128906 0-21.9726559 9.84374992-21.97265591 21.97265591l0 0L250.90624989 445.12792934c-2.40234381 14.32617204-3.95507813 28.94531264-3.95507814 43.94531259 0 145.62011733 118.05175819 263.67187475 263.67187475 263.67187475s263.67187475-118.05175819 263.67187475-263.67187475C774.30957048 474.46874979 772.80078156 460.23046854 770.50097625 446.27050816z"  horiz-adv-x="1024" />

    
    <glyph glyph-name="ditu2" unicode="&#58936;" d="M686.81375 577.935c-42.084375 0-76.2178125 34.126875-76.2178125 76.23 0 42.1171875 34.1371875 76.2178125 76.2178125 76.2178125 42.106875 0 76.2421875-34.111875 76.2421875-76.2178125 0-42.1059375-34.138125-76.23-76.2421875-76.23M686.81375 375.87468750000005c0 0 158.3803125 197.5771875 158.3803125 285.043125 0 87.470625-70.895625 158.3671875-158.3803125 158.3671875-87.4565625 0-158.3559375-70.895625-158.3559375-158.3671875 0-87.4809375 158.3559375-285.043125 158.3559375-285.043125M318.340625-5.365312499999959l-164.6428125 67.8403125v471.5559375l164.6428125-67.8009375v-471.5896875zM938.6271875 4.468124999999986v596.431875l-59.5828125 31.7259375c-4.5384375-16.8178125-11.7234375-35.0915625-20.6634375-53.964375l22.513125-16.4465625v-471.5446875l-164.6428125 67.7896875v213.73875c-5.9053125-7.659375-10.27125-13.1521875-12.4321875-15.85125l-17.00625-21.18375-16.96875 21.18375c-2.015625 2.53875-5.990625 7.51125-11.311875 14.3971875v-236.000625l-282.4828125-116.3465625v471.568125l149.17875 51.2053125c-9.3984375 18.0365625-17.5790625 35.8134375-23.7440625 52.66125l-183.1415625-65.1553125-222.3890625 91.54875v-596.431875l222.3890625-91.5984375 397.910625 163.8384375 222.375-91.5571875z"  horiz-adv-x="1024" />

    
    <glyph glyph-name="xiaoxigonggao" unicode="&#59072;" d="M512.071631 823.284885 292.602128 603.718167 137.054469 603.718167c-40.420595 0-73.200162-32.779567-73.200162-73.196069l0-292.765857c0-40.455387 32.779567-73.200162 73.200162-73.200162l155.543565 0L512.076748-55.075107c40.411385 0 73.160253 32.779567 73.160253 73.200162L585.237001 750.088816C585.238025 790.510434 552.49325 823.284885 512.071631 823.284885L512.071631 823.284885 512.071631 823.284885zM512.071631 20.660808l-192.054107 211.897038L137.054469 232.557846 137.054469 525.319609l182.963055 0 192.054107 211.92569 0-716.588585L512.071631 20.660808 512.071631 20.660808zM945.860339 352.005308c7.226588 0 13.068643 14.381545 13.068643 32.102139 0 17.720593-5.842055 32.107255-13.068643 32.107255l-91.52553 0c-7.231705 0-13.07376-14.381545-13.07376-32.107255 0-17.720593 5.842055-32.102139 13.07376-32.102139L945.860339 352.005308 945.860339 352.005308 945.860339 352.005308zM955.780269 766.917086c6.260587 3.614317 4.130064 18.993586-4.729721 34.340109-8.855692 15.346523-21.110807 24.879644-27.376511 21.266349l-79.261205-45.765323c-6.261611-3.608178-4.125971-18.98847 4.729721-34.340109 8.859785-15.346523 21.1149-24.87862 27.375487-21.266349L955.780269 766.917086 955.780269 766.917086 955.780269 766.917086zM955.780269 1.300878c6.260587-3.617387 4.130064-18.992563-4.729721-34.339086-8.855692-15.346523-21.110807-24.88476-27.376511-21.266349l-79.261205 45.75509c-6.261611 3.617387-4.125971 18.993586 4.729721 34.340109 8.859785 15.346523 21.1149 24.883737 27.375487 21.266349L955.780269 1.300878 955.780269 1.300878 955.780269 1.300878zM636.743072 219.654978c-6.528694 17.565051-4.724605 34.227546 12.839423 40.756239 44.370557 20.48045 65.544809 60.331064 70.962192 110.319571 6.315846 58.32743-21.597901 111.920022-69.77618 133.9999-15.766079 10.132778-22.285562 27.698852-12.152784 43.462884 10.143011 15.756869 27.703969 22.285562 43.459814 12.147668 71.375607-41.450041 114.142643-113.514333 105.121176-196.832947-7.226588-66.652026-47.76998-129.693828-109.700471-156.698878-14.473643-8.192589-33.876552-2.819209-40.753169 12.834306L636.743072 219.654978 636.743072 219.654978zM636.743072 219.654978"  horiz-adv-x="1024" />

    
    <glyph glyph-name="zv1" unicode="&#58935;" d="M848.75615937 36.97927969L181.83649062 36.97927969c-12.85720312 0-25.33930031 2.52788625-37.10572218 7.50115406-11.35102406 4.80442219-21.53931656 11.6704875-30.28474688 20.41495875-8.74447125 8.74543031-15.61629188 18.93852-20.41495875 30.29050312-4.98094312 11.76162562-7.50115406 24.24851906-7.50115406 37.10572219L86.52990875 608.66048062c0 12.85720312 2.52021094 25.33930031 7.50115406 37.10572219 4.79866688 11.35102406 11.67144656 21.53931656 20.41495875 30.28474688 8.74639031 8.74447125 18.93372281 15.61629188 30.28474688 20.41495875 11.76642281 4.98094312 24.24851906 7.50211313 37.10572219 7.50211312l666.91966875 0c12.85720312 0 25.33930031-2.52117094 37.10572218-7.50211312 11.35198313-4.79866688 21.53931656-11.6704875 30.28474688-20.41495875 8.74447125-8.74543031 15.61629188-18.93372281 20.41495875-30.28474688 4.97998313-11.76642281 7.50115406-24.24851906 7.50115406-37.10572218l0-476.36886188c0-12.85624313-2.52117094-25.34409656-7.50115406-37.10572219-4.79866688-11.35198313-11.6704875-21.54507281-20.41495875-30.29050312-8.74543031-8.74447125-18.93276375-15.61053562-30.28474688-20.41495875C874.09545969 39.506206880000036 861.6133625 36.97927969 848.75615937 36.97927969M181.83649062 656.26148625c-26.24780438 0-47.60100656-21.35320219-47.60100656-47.60100656l0-476.36886188c0-26.25260062 21.35320219-47.60484375 47.60100656-47.60484375l666.91966875 0c26.24684438 0 47.6000475 21.35224312 47.6000475 47.60484375L896.35620687 608.66048062c0 26.24780438-21.35320219 47.60100656-47.60004749 47.60100657L181.83649062 656.26148625zM205.65714031 537.20524688l190.54696875-1e-8 0-47.64034031-190.54696875 0 0 47.64034031ZM657.51174313 221.57828156000005c-19.77891 0-38.97933187 3.87865031-57.06499032 11.52850407-17.456325 7.38795094-33.13593375 17.95038938-46.58889281 31.40910468-13.452 13.45295906-24.02115375 29.1258525-31.40334844 46.58313657-7.64889375 18.08757656-11.52754406 37.28703937-11.52754406 57.06403031 0 19.78082906 3.87865031 38.98125094 11.52754406 57.0688275 7.38219469 17.455365 17.95134937 33.13593375 31.40334844 46.58697375 13.45295906 13.45391813 29.13256781 24.02307281 46.58889281 31.4043075 18.0866175 7.64985375 37.28608031 11.52850406 57.06499031 11.52850406 19.77795094 0 38.97837281-3.87865031 57.06594938-11.52850406 17.456325-7.38219469 33.1301775-17.95038938 46.58313656-31.4043075 13.45871531-13.45104 24.02115375-29.13160875 31.40910469-46.58697375 7.64985375-18.08757656 11.52850406-37.28799844 11.52850406-57.0688275 0-19.77699094-3.87865031-38.97741375-11.52850406-57.06403031-7.38795094-17.456325-17.95038938-33.12921844-31.40910469-46.58313657-13.452-13.45871531-29.1258525-24.02115375-46.58313656-31.40910468C696.49011594 225.45693187999996 677.28969313 221.57828156000005 657.51174313 221.57828156000005M657.51174313 467.04993187c-26.41185281 0-51.24461625-10.28998313-69.92219251-28.96180406-18.67278-18.67661719-28.96372219-43.51033969-28.96372218-69.92507062 0-26.41089375 10.29190219-51.23790094 28.96372218-69.91547719 18.67757625-18.67757625 43.51033969-28.960845 69.9221925-28.960845s51.24557531 10.28422687 69.91739626 28.960845c18.67757625 18.67757625 28.96180406 43.50458344 28.96180406 69.91547719 0 26.41473094-10.28518687 51.24749438-28.96180406 69.92507062C708.75156219 456.75994875 683.92359594 467.04993187 657.51174313 467.04993187M821.6459 36.97927969L496.80342312 36.97927969l-2.9308125 20.47827562c-1.11860156 7.854195-1.6922925 15.8733975-1.6922925 23.83408031 0 22.53895875 4.42356094 44.41980375 13.14117 65.02759125 8.41061719 19.89211313 20.45525156 37.75712062 35.78757563 53.09040469s33.19349438 27.37216125 53.09136375 35.78853563c20.6077875 8.71665 42.48287625 13.13445469 65.02759125 13.13445468 22.53895875 0 44.4140475-4.41780469 65.02759125-13.13445468 19.89211313-8.41541438 37.75232438-20.45525156 53.08464844-35.78853563s27.3779175-33.1973325 35.79429187-53.09040469c8.71665-20.6077875 13.13445469-42.4886325 13.13445469-65.02759125 0-7.96068281-0.56793469-15.97988531-1.6922925-23.83408031L821.6459 36.97927969zM539.93386063 84.68677405999995l238.58160187 0c-0.8519025 30.60229125-13.16899125 59.25230719-34.90785281 80.9844525-22.53895875 22.544715-52.50520125 34.95390094-84.38055 34.95390094-31.880145 0-61.84830656-12.40918687-84.38630625-34.95390094C553.10189281 143.93908124999996 540.78480406 115.28906625000002 539.93386063 84.68677405999995M205.65714031 441.93320156l238.18539 0 0-47.63938031-238.18539 0 0 47.63938031ZM205.65714031 346.65348094l142.90758844 0 0-47.632665-142.90758844 0 0 47.632665Z"  horiz-adv-x="1024" />

    
    <glyph glyph-name="xiaoxi" unicode="&#59304;" d="M832 748L192 748C121.344 748 64 690.6560000100001 64 620.00000001l0-384c0-70.656 57.344-128 128-128.00000001l127.808 0 0-65.408c0-24 13.44-45.568 34.944-56.19199999 8.896-4.288 18.368-6.464 27.776-6.46400001 13.504 0 26.88 4.416 38.08 12.99200001L570.048 108 832 108c70.656 0 128 57.344 128 128.00000001L960 620.00000001C960 690.6560000100001 902.656 748 832 748zM896 236.00000001c0-35.392-28.608-64-64-64.00000001l-272.576 0.06400001c-7.04 0-13.888-2.304-19.456-6.59200001l-156.224-122.944 0 97.536c0 17.664-14.336 31.936-31.936 31.936L192 172c-35.392 0-64 28.608-64 64.00000001L128 620.00000001c0 35.392 28.608 64 64 63.99999999l640 0c35.392 0 64-28.608 64-63.99999999L896 236.00000001zM320 492C284.608 492 256 463.392 256 428.00000001s28.608-64 64-64.00000001 64 28.608 64 64.00000001S355.392 492 320 492zM512 492C476.608 492 448 463.392 448 428.00000001s28.608-64 64-64.00000001 64 28.608 64 64.00000001S547.392 492 512 492zM704 492c-35.392 0-64-28.608-64-63.99999999s28.608-64 64-64.00000001 64 28.608 64 64.00000001S739.392 492 704 492z"  horiz-adv-x="1024" />

    
    <glyph glyph-name="shijian" unicode="&#59070;" d="M515.38758-128.002596c-271.476637 0-491.521565 220.063898-491.521565 491.521565 0 271.496605 220.04393 491.540535 491.521565 491.540535 271.496605 0 491.540535-220.04393 491.540535-491.540535 0-271.457668-220.04393-491.521565-491.540535-491.521565zM515.38758 793.619808c-237.522963 0-430.080871-192.557907-430.080871-430.100839 0-237.522963 192.557907-430.080871 430.080871-430.080871 237.541933 0 430.100839 192.557907 430.100839 430.080871 0 237.541933-192.557907 430.100839-430.100839 430.100839zM776.95607 302.078275l-262.000799 0c-9.260184 0-17.439097 4.286142-22.983227 10.911542-4.482827 5.269569-7.294329 11.973842-7.294329 19.385982l0 0.275559c0 0.058906-0.019968 0.097843-0.019968 0.157748s0.019968 0.078874 0.019968 0.157748l-0.019968 307.496006c0.019968 16.73123 13.762979 30.277556 30.729832 30.277556 16.966853 0 30.7498-13.566294 30.7498-30.277556l-0.019968-276.942891 230.798722 0c16.751198 0 30.336462-13.743011 30.317492-30.709864 0-16.986821-13.546326-30.729832-30.277556-30.729832z"  horiz-adv-x="1024" />

    
    <glyph glyph-name="bofang3" unicode="&#59073;" d="M832.0064 384 192 0 192 768 832.0064 384 832.0064 384zM832.0064 384"  horiz-adv-x="1024" />

    
    <glyph glyph-name="tuding" unicode="&#58979;" d="M303.3 728.4c0.9-6.7 1.3-13.6 1.1-20.5l-1.1-36.2 28.3-22.5 214.4-170 30.3-24 36.8 12c29 9.5 59.3 14.3 90 14.3 32.4 0 64.3-5.4 94.8-15.9 17.9-6.2 35.1-14.2 51.4-23.7L680 271.9l-42.9-43.1L624.4 216l0 0L454.9 45.8c-17.5 29.5-29.7 62.2-35.8 96.1-8.4 47-5 95.8 9.8 141.1l12 36.8-24 30.3-170 214.4-22.5 28.3-36.2-1.1c-1.2 0-2.5-0.1-3.7-0.1-5.7 0-11.4 0.4-17 1.2L303.3 728.4M317.9 830.9c-8.5 0-17.1-3.2-23.7-9.8L74.8 602.2c-15-15-12.6-40 5.2-51.6 31.7-20.6 68.1-30.9 104.5-30.9 2 0 4 0 6 0.1l170-214.4c-37.2-113.9-16.3-242.5 62.7-339.6 6.9-8.4 16.8-12.7 26.7-12.7 8.8 0 17.5 3.3 24.3 10.1l206 206.8 223.2-223.2c6.4-6.4 14.7-9.5 23-9.5 8.3 0 16.7 3.2 23 9.5 12.7 12.7 12.7 33.4 0 46.1L726.1 216.1l206 206.8c14.4 14.4 13 38.1-2.8 51-65.8 53.1-146 79.7-226.1 79.7-38 0-75.9-6-112.4-17.9l-214.4 170c1.2 38.3-9 76.8-30.6 110.1C339.3 825.7 328.7 830.9 317.9 830.9L317.9 830.9z"  horiz-adv-x="1024" />

    
    <glyph glyph-name="shoujihaoma" unicode="&#58920;" d="M252.39256104 739.64840167c4.37103616-3.91740683 10.89976602-10.41915481 19.64352585-20.75061896 12.91496238-15.29947073 27.38980508-35.08802271 41.81405657-57.22819904 27.95894989-42.92367929 45.42201645-78.46617508 50.44314304-92.03207079-1.19225418-4.71505298-4.5413583-10.64428281-10.73197349-21.03645575-11.63754712-19.56005063-27.59216748-46.35625781-27.59216748-84.36842304 0-24.2143948 11.27076472-50.38749344 36.53576011-84.82036651 16.52376599-22.51117502 38.46579538-47.86386109 63.50228943-73.2688234 24.35773508-24.69584976 49.73656009-47.4650376 71.48297214-64.07396384 34.28953281-26.19923675 59.12872283-37.35701559 83.03367151-37.35701559 33.60740131 0 60.43564957 14.27838162 82.01258322 25.77680475 11.80702634 6.32805332 23.07863398 12.32052155 31.30721109 13.65443014 11.64513592-4.11471002 45.22386951-21.20509204 95.24458054-56.97608917 42.23733152-30.20433426 68.27130615-53.59494397 79.99654394-65.9432903-3.91740683-21.23291684-16.40825051-43.00631077-35.60236166-61.42891389-11.21258552-10.78509429-24.04238681-19.67472317-37.07202174-25.71862554-11.29943243-5.22180313-22.45721127-8.09198272-31.42694283-8.09198274-51.66237909 0-116.07361468 21.71858725-186.25134678 62.82268753-68.58159521 40.16564264-139.69272574 96.94105527-205.6925094 164.22162671-64.83704013 66.11782873-119.96741217 137.36724033-159.34130997 206.03568246-19.61570022 34.20858802-34.7161811 66.74093728-44.85287082 96.77494941-9.85169587 29.06772968-14.84331097 55.06966242-14.84331096 77.26970462 0 7.44189231 3.40306787 17.46306655 9.56585824 28.22033524 7.32216055 12.77415171 18.28263537 26.28692742 31.7068775 39.0602362 12.60467248 12.00601621 27.16636212 23.0794769 40.93630774 31.11243667C242.82585904 735.35999698 248.24580994 737.97216293 252.39256104 739.64840167M259.40358878 801.95759317C210.85759619 801.95759317 94.35817697 713.8151044 94.35817697 633.10860415c0-235.92804098 406.08142713-666.7668696 670.62778308-666.7668696 72.81182071 0 165.01337073 78.20984893 165.01337073 168.87597089 0 31.0298052-189.28341596 168.84898901-232.97270114 168.84898902-44.91273669 0-77.67274438-39.71116956-116.50447842-39.71116956-38.83342072 0-194.91078762 156.44077679-194.91078764 199.87710837 0 43.45994009 38.80896845 64.57818439 38.80896845 109.26157681C424.41780242 605.80143137 307.94367841 801.95759317 259.40358878 801.95759317L259.40358878 801.95759317 259.40358878 801.95759317 259.40358878 801.95759317z"  horiz-adv-x="1024" />

    
    <glyph glyph-name="zhichayonghuzengjiayonghu" unicode="&#58932;" d="M727.996402 258.649084c0 11.887748-6.810103 21.559015-15.567557 28.688389l-1.157359 0.838088c-22.557762 16.270569-46.200228 29.753651-71.813582 41.147142 74.333986 50.41318 123.302257 136.086421 123.302257 233.389538 0 155.129126-124.381845 280.893458-277.800004 280.893458S207.16834 717.842391 207.16834 562.712241c0-96.819093 48.463782-182.180226 122.17662-232.685503-128.408555-56.215326-221.255173-179.023326-236.610906-325.861626l-0.100284-4.593622c0-20.974707 17.7165-37.96773 39.569204-37.96773s39.550785 16.994046 39.550785 37.96773l-0.082888 1.588171 0.016373 0.314155c19.125593 156.667156 148.597363 278.167371 308.028469 280.866852 1.784646-0.036839 3.449565-0.531096 5.243421-0.531096 1.336438 0 2.562359 0.375553 3.889587 0.393973 65.63179-0.887206 125.470643-21.358447 175.399799-56.883545 6.716982-4.730745 14.010085-9.133008 22.978341-9.133008 22.37459 0 40.801265 17.557888 40.801265 39.008432L727.996402 258.649084zM489.690902 362.961848c-1.573845 0.01842-3.047406 0.384763-4.621251 0.384763-1.592264 0-3.075035-0.429789-4.6673-0.448208-107.387799 2.553149-193.929828 90.531899-193.929828 199.731974 0 110.801549 88.830141 200.629413 198.413955 200.629413s198.423165-89.826841 198.423165-200.629413C683.309644 453.539796 596.923158 365.698169 489.690902 362.961848zM936.645466 110.20624l-64.045665 0.125867-0.25071 61.657268c-0.089028 17.118889-14.039761 31.069623-31.15865 31.15865-17.118889 0.099261-30.913057-13.693884-30.818913-30.818913l0.569982-61.883419-63.128783 0.12075c-17.113773 0.094144-30.913057-12.741185-30.813796-29.860075 0.078795-17.108656 14.039761-31.069623 31.15865-31.15865l63.349817-0.445138 0.581238-62.700017c0.094144-17.113773 13.075807-31.05939 30.189579-31.153534 17.118889-0.089028 30.913057 13.704117 30.824029 30.824029l-0.25685 62.594617 64.150042-0.451278c17.10354-0.104377 30.90794 13.699 30.818913 30.818913C967.720206 96.15113 953.759239 110.112096 936.645466 110.20624z"  horiz-adv-x="1024" />

    
    <glyph glyph-name="tongzhi1" unicode="&#59081;" d="M330.24 514.56 167.424 514.56c-16.384 0-29.184 13.312-29.184 29.184s13.312 29.184 29.184 29.184l162.816 0c16.384 0 29.184-13.312 29.184-29.184S346.624 514.56 330.24 514.56zM167.424 333.312c-16.384 0-29.184 13.312-29.184 29.184L138.24 543.744c0 16.384 13.312 29.184 29.184 29.184s29.184-13.312 29.184-29.184l0-181.248C196.608 346.112 183.808 333.312 167.424 333.312zM628.736 294.4c-16.384 0-29.184 13.312-29.184 29.184L599.552 685.568c0 1.024 0 2.56 0 3.072 0 2.048-1.536 3.072-3.072 3.072-0.512 0-1.024 0-1.536-0.512-0.512-0.512-1.024-0.512-1.536-1.024L347.136 519.68c-13.312-9.216-31.744-6.144-40.96 7.168-9.216 13.312-6.144 31.744 7.168 40.96l247.808 172.544c1.024 0.512 1.536 1.024 2.56 1.536 9.728 6.144 20.992 9.216 32.256 9.216 33.792 0 61.44-27.648 61.44-61.44 0-0.512 0-1.024 0-2.048 0-0.512 0-0.512 0-1.024l0-362.496C658.432 307.712 645.12 294.4 628.736 294.4zM330.24 195.072 167.424 195.072c-16.384 0-29.184 13.312-29.184 29.184s13.312 29.184 29.184 29.184l162.816 0c16.384 0 29.184-13.312 29.184-29.184S346.624 195.072 330.24 195.072zM167.424 195.072c-16.384 0-29.184 13.312-29.184 29.184L138.24 405.504c0 16.384 13.312 29.184 29.184 29.184s29.184-13.312 29.184-29.184l0-181.248C196.608 208.384 183.808 195.072 167.424 195.072zM596.48 16.896c-11.776 0-23.04 3.072-32.768 9.216-1.024 0.512-1.536 1.024-2.56 1.536l-247.808 172.544c-13.312 9.216-16.384 27.648-7.168 40.96 9.216 13.312 27.648 16.384 40.96 7.168l246.272-171.52c0.512-0.512 1.024-0.512 1.536-1.024 0.512-0.512 1.536-0.512 1.536-0.512 1.536 0 3.072 1.536 3.072 3.072 0 1.536 0 3.072 0 4.096l0 361.472c0 16.384 13.312 29.184 29.184 29.184s29.184-13.312 29.184-29.184l0-362.496c0-0.512 0-0.512 0-1.024 0-0.512 0-1.024 0-1.536C658.432 44.544 630.784 16.896 596.48 16.896zM684.032 245.76c-13.824 0-26.112 9.728-28.672 24.064-3.072 15.872 7.68 31.232 23.552 33.792 38.912 6.656 67.072 40.448 67.072 79.872 0 39.424-28.16 73.216-67.072 79.872-15.872 3.072-26.624 17.92-23.552 33.792 3.072 15.872 17.92 26.624 33.792 23.552 67.072-11.776 115.712-69.632 115.712-137.728 0-68.096-48.64-125.952-115.2-137.728C687.616 245.76 686.08 245.76 684.032 245.76zM931.328 354.816l-88.064 0c-16.384 0-29.184 13.312-29.184 29.184s13.312 29.184 29.184 29.184l88.064 0c16.384 0 29.184-13.312 29.184-29.184S947.2 354.816 931.328 354.816zM815.616 634.368c-7.68 0-14.848 3.072-20.48 8.704-11.264 11.264-11.264 30.208 0 41.472l60.416 60.416c11.264 11.264 30.208 11.264 41.472 0 11.264-11.264 11.264-30.208 0-41.472l-60.416-60.416C830.976 637.44 823.296 634.368 815.616 634.368zM876.032 14.336c-7.68 0-14.848 3.072-20.48 8.704l-60.416 60.416c-11.264 11.264-11.264 30.208 0 41.472s30.208 11.264 41.472 0l60.416-60.416c11.264-11.264 11.264-30.208 0-41.472C891.392 17.408 883.712 14.336 876.032 14.336z"  horiz-adv-x="1024" />

    
    <glyph glyph-name="zhiwu" unicode="&#58992;" d="M632.414999 768.8644380000001l-39.959084-60.018955c-2.062985-2.62785-9.082866-6.372128-12.910031-6.372128l-80.180134 0c-3.858888 0-10.847046 3.744277-12.775978 6.204305l-40.124859 60.185754L632.414999 768.863415M562.579467 536.437831c0.730641-0.017396 1.995447-0.682545 2.794649-1.347694l107.86159-381.364731c0.134053-1.447978-0.664126-4.471848-1.331321-5.390777L539.455817 3.111106999999947 407.170978 148.153504c-0.830925 1.099031-1.630127 4.122901-1.696642 4.623297l108.062158 382.312312c0.800225 0.665149 2.065032 1.330298 2.795673 1.347694L562.579467 536.4368079999999M665.650961 827.904089L413.260673 827.904089c-15.737426 0-28.977985-7.503904-35.46677-20.079314-6.453992-12.576433-4.988618-28.046776 3.858888-41.354873l61.816904-92.774987c11.678994-17.534352 35.20071-30.259164 55.896054-30.259164l80.180134 0c20.695345 0 44.184315 12.724813 55.896054 30.259164l61.815881 92.774987c8.850575 13.308097 10.313903 28.779464 3.826142 41.354873C694.630992 820.401208 681.354618 827.904089 665.650961 827.904089L665.650961 827.904089 665.650961 827.904089zM562.579467 595.492832l-46.246277 0c-23.822568 0-46.778396-17.700127-53.399187-41.138956L354.370425 170.360272c-5.921873-21.026896 0.333598-47.925522 14.905478-63.912635l135.812175-148.918681c8.915044-9.780761 21.458731-15.386432 34.367739-15.386432 12.907984 0 25.451672 5.606695 34.366715 15.386432l135.813199 148.918681c14.57188 15.987113 20.827351 42.885739 14.903431 63.912635L615.944885 554.353876C609.35684 577.809077 586.399989 595.492832 562.579467 595.492832L562.579467 595.492832 562.579467 595.492832z"  horiz-adv-x="1024" />

    
    <glyph glyph-name="wenjianyasuo" unicode="&#59094;" d="M878.149 627.168l-178.882 178.882c-22.36 22.36-44.721 27.95-72.67 27.95h-447.205c-33.54 0-55.9-22.36-55.9-55.9v-788.198c0-27.95 22.36-55.9 55.9-55.9h665.218c27.95 0 55.9 27.95 55.9 55.9v581.366c0 27.95-11.18 39.13-22.36 55.9v0zM257.653 124.062c0-22.36 0-39.13 27.95-39.13h234.782c27.95 0 33.54 16.77 33.54 39.13v134.162c0 22.36-11.18 44.721-39.13 44.721h-111.802v50.31h150.932v55.9h-150.932v55.9h150.932v55.9h-150.932v50.31h150.932v55.9h-150.932v55.9h150.932v50.31h-150.932v55.9h223.602v-201.242c0-16.77 11.18-22.36 22.36-22.36h206.832v-575.777c0-5.59-5.589-11.18-11.18-11.18h-665.218c-5.589 0-11.18 5.589-11.18 11.18v788.198c0 5.59 5.59 11.18 11.18 11.18h78.261v-55.9h145.342v-50.31h-145.342v-55.9h145.342v-55.9h-145.342v-50.31h145.342v-55.9h-145.342v-55.9h145.342v-55.9h-145.342v-229.192zM486.845 191.142v-55.9h-162.112v55.9h162.112zM827.838 604.808h-156.522v162.112l156.522-162.112z"  horiz-adv-x="1024" />

    
    <glyph glyph-name="wenjianshipin" unicode="&#59089;" d="M875.938 626.164l-55.352 58.119-121.775 121.774c-24.908 22.141-41.514 27.676-69.19 27.676h-451.118c-30.443 0-55.352-24.908-55.352-55.352v-788.763c0-30.443 24.908-55.352 55.352-55.352h666.989c30.443 0 55.352 24.908 55.352 55.352v583.961c0 22.141-8.303 33.211-24.908 52.584v0zM831.657 606.79h-157.752v157.752l157.752-157.752zM856.565-10.381c0-5.535-5.535-11.071-11.071-11.071h-666.989c-5.535 0-11.071 5.535-11.071 11.071v788.763c0 5.535 5.535 11.071 11.071 11.071 0 0 451.118 0 451.118 0v-204.802c0-11.071 11.071-22.141 22.141-22.141h204.802v-572.89zM269.836 426.898h282.294c16.605 0 30.443-13.838 30.443-27.676v-71.957l157.752 94.099c24.908 16.605 35.978 8.303 35.978-16.605v-249.082c0-30.443-16.605-27.676-35.978-16.605l-157.752 96.866v-71.957c0-16.605-13.838-30.443-30.443-30.443h-282.294c-16.605 0-30.443 13.838-30.443 30.443v235.245c0 13.838 13.838 27.676 30.443 27.676zM626.855 296.821l99.633 60.887v-152.218l-99.633 60.887v30.443zM297.512 379.849h226.943c5.535 0 11.071-5.535 11.071-11.071v-177.126c0-5.535-5.535-11.071-11.071-11.071h-226.943c-5.535 0-11.071 5.535-11.071 11.071v177.126c0 5.535 5.535 11.071 11.071 11.071z"  horiz-adv-x="1024" />

    
    <glyph glyph-name="wenjianyinpin" unicode="&#59090;" d="M877.854 626.775l-56.805 56.806-121.726 123.079c-24.345 21.64-41.928 27.050-68.978 27.050h-451.737c-31.108 0-55.453-24.345-55.453-55.453v-789.865c0-29.755 24.345-54.1 55.453-54.1h666.787c31.108 0 55.453 24.345 55.453 54.1v584.284c0 24.345-8.115 35.165-22.993 54.1v0zM830.516 606.487h-156.891v156.891l156.891-156.891zM856.213-11.609c0-5.409-4.057-10.821-10.821-10.821h-666.787c-6.762 0-12.172 5.409-12.172 10.821v789.865c0 6.762 5.409 12.172 12.172 12.172 0 0 451.737 0 451.737 0v-205.582c0-12.173 9.468-21.64 21.64-21.64h204.229v-574.816zM723.668 482.057c-117.668 1.353-246.157-22.993-363.825-59.511-9.468-4.058-10.821-5.409-10.821-14.877v-210.991c-12.172 5.409-27.050 6.762-41.927 5.409-45.985-1.353-82.503-29.755-82.503-60.862 0-31.108 36.517-55.453 82.503-52.748 45.985 2.706 82.503 29.755 82.503 60.863v193.409c109.553 25.698 209.638 43.28 312.429 51.395v-150.128c-12.173 5.409-25.698 6.762-40.576 6.762-45.985-2.706-82.503-29.755-82.503-62.215 0-31.108 36.517-55.453 82.503-52.748 44.632 2.706 82.503 29.755 82.503 60.863v267.797c0 13.525-6.762 16.23-20.287 17.583z"  horiz-adv-x="1024" />

    
    <glyph glyph-name="wenjiantupian" unicode="&#59092;" d="M858.808-8.349c0-7.007-7.007-14.013-14.013-14.013h-665.592c-7.007 0-14.013 7.007-14.013 14.013v784.699c0 7.007 7.007 14.013 14.013 14.013 0 0 448.4 0 448.4 0v-203.182c0-14.013 14.013-28.025 21.019-28.025h210.187v-567.505zM830.784 608.199h-161.143v154.137l161.143-154.137zM872.821 629.218l-175.156 175.156c-21.019 21.019-42.037 28.025-70.062 28.025h-448.4c-28.025 0-56.049-21.019-56.049-56.049v-784.699c0-35.032 21.019-56.049 56.049-56.049h665.592c28.025 0 56.049 21.019 56.049 56.049v581.518c0 21.019-7.007 35.032-28.025 56.049v0zM228.248 40.695h574.511v266.238l-175.156 133.118-196.175-238.211-112.1 91.081-91.081-91.081v-161.143zM256.272 461.069c0-56.049 42.038-105.094 98.088-105.094s105.094 49.043 105.094 105.094c0 56.049-49.043 105.094-105.094 105.094-56.049 0-98.088-49.043-98.088-105.094z"  horiz-adv-x="1024" />

    
    <glyph glyph-name="wenjianpdf" unicode="&#59096;" d="M285.763 93.068v154.182h36.415c44.937 0 84.452 47.261 84.452 106.92 0 58.883-43.388 98.397-101.497 98.397h-66.632v-359.5h47.261zM285.763 286.764v124.741h20.918c34.090 0 51.911-34.866 51.911-59.659 0-33.316-18.595-65.082-49.586-65.082h-23.243zM446.918 452.569v-359.5h58.109c99.948 0 116.992 108.47 116.992 180.525 0 85.225-29.441 178.975-114.668 178.975h-60.433zM572.433 273.593c0-52.686-10.847-139.462-65.082-139.462h-13.171v277.373h13.171c56.559 0 65.082-86.776 65.082-137.137v-0.775zM714.219 93.068v168.903h79.027v41.063h-79.027v108.47h87.55v41.063h-134.037v-359.5h46.487zM877.698 627.669l-56.559 55.784-122.416 123.191c-23.243 21.694-41.063 27.118-68.955 27.118h-451.699c-30.217 0-55.010-24.793-55.010-55.010v-790.279c0-30.217 24.793-54.234 55.010-54.234h667.864c30.217 0 55.010 24.018 55.010 54.234v584.187c0 24.018-7.748 35.64-23.243 55.010v0 0zM830.436 606.75h-157.282v157.282l157.282-157.282zM856.778-11.528c0-5.423-4.648-10.847-10.847-10.847h-667.864c-6.198 0-10.847 5.423-10.847 10.847v790.279c0 6.198 4.648 10.847 10.847 10.847 0 0 451.699 0 451.699 0v-204.543c0-12.397 10.073-22.468 21.694-22.468h205.318v-574.115z"  horiz-adv-x="1024" />

    
    <glyph glyph-name="suoxiao1" unicode="&#59204;" d="M951.643 18.453l-210.337 210.335c50.487 64.946 80.56 146.547 80.56 235.199 0 211.793-171.681 383.472-383.563 383.472-211.792 0-383.471-171.679-383.471-383.472 0-211.862 171.679-383.538 383.471-383.538 88.661 0 170.271 30.075 235.218 80.56l210.337-210.339c9.34-9.339 21.614-14.055 33.89-14.055s24.551 4.716 33.892 14.055c18.77 18.77 18.77 49.101 0 67.781v0zM150.725 463.989c0 158.601 128.978 287.58 287.58 287.58 158.691 0 287.671-128.978 287.671-287.58 0-158.668-128.978-287.651-287.671-287.651-158.601 0-287.58 128.978-287.58 287.651v0zM397.297 504.996h-100.16c-22.683 0-41.008-18.324-41.008-40.919 0-22.683 18.324-41.094 41.008-41.094h282.333c22.683 0 41.095 18.412 41.007 41.094 0 22.595-18.324 40.919-41.007 40.919v0h-182.173z"  horiz-adv-x="1024" />

    
    <glyph glyph-name="fangda1" unicode="&#59237;" d="M945.159 28.39l-206.543 206.538c49.578 63.772 79.108 143.903 79.108 230.953 0 207.97-168.58 376.547-376.639 376.547-207.97 0-376.547-168.577-376.547-376.547 0-208.038 168.577-376.614 376.547-376.614 87.059 0 167.197 29.532 230.973 79.108l206.543-206.544c9.171-9.17 21.227-13.802 33.278-13.802s24.106 4.629 33.28 13.802c18.431 18.43 18.431 48.215 0 66.559v0zM158.701 465.881c0 155.737 126.65 282.39 282.39 282.39 155.826 0 282.477-126.65 282.477-282.39 0-155.805-126.65-282.458-282.477-282.458-155.739 0-282.39 126.65-282.39 282.458v0zM579.708 506.147h-98.352v98.352c0 22.272-17.991 40.268-40.268 40.352-22.185-0.086-40.267-18.078-40.267-40.352v-98.352h-98.352c-22.272 0-40.268-17.991-40.268-40.179 0-22.272 17.991-40.352 40.268-40.352h98.352v-98.352c0-22.252 18.080-40.246 40.267-40.333 22.274 0.086 40.268 18.080 40.268 40.333v98.352h98.352c22.272 0 40.355 18.079 40.267 40.352 0 22.187-17.991 40.179-40.267 40.179v0z"  horiz-adv-x="1024" />

    
    <glyph glyph-name="fangdajing" unicode="&#58893;" d="M947.509543-2.852403 726.787249 217.869891c55.154992 64.569202 88.411712 148.273808 88.411712 239.653043 0 203.735785-165.77196 369.507745-369.507745 369.507745s-369.507745-165.77196-369.507745-369.507745 165.77196-369.610073 369.507745-369.610073c91.379235 0 175.083841 33.359049 239.653043 88.411712l220.722294-220.722294c5.730389-5.730389 13.20036-8.595583 20.772659-8.595583 7.469971 0 15.04227 2.865194 20.772659 8.595583C958.970321-32.834616 958.970321-14.313181 947.509543-2.852403zM134.817628 457.522934c0 171.40002 139.473569 310.873588 310.873588 310.873588S756.564805 628.922954 756.564805 457.522934c0-171.40002-139.473569-310.873588-310.873588-310.873588S134.817628 286.122914 134.817628 457.522934z"  horiz-adv-x="1024" />

    
    <glyph glyph-name="huishan" unicode="&#58966;" d="M822.208111 757.281635 347.597673 757.281635c-27.308973 0-64.513316-16.943904-82.691327-37.84698L22.312168 440.490595c-27.070542-31.126928-27.132964-81.782631 0-112.981191l242.594177-278.94406c18.121729-20.837584 55.200206-37.845956 82.691327-37.845956l474.610438 0c110.278639 0 199.805652 89.353051 199.805652 199.574385L1022.013763 557.70725C1022.013763 667.97054 932.557358 757.281635 822.208111 757.281635zM979.034902 210.29275c0-41.809221-16.314571-81.125669-45.939285-110.708428-29.631878-29.590945-69.012793-45.887097-110.887506-45.887097L347.597673 53.697225c-14.956643 0-40.322357 11.643178-50.260707 23.071462L54.742788 355.71377c-13.105482 15.068184-13.105482 41.504276 0 56.573483l242.594177 278.94406c9.93835 11.428284 35.304064 23.071462 50.260707 23.071462l474.610438 0c41.905412 0 81.294514-16.290011 110.913089-45.870724 29.608342-29.569456 45.913703-68.893067 45.913703-110.725824L979.034902 210.29275zM735.477794 550.003801 592.190367 406.716374 448.90294 550.003801 418.736896 519.837758 562.024324 376.550331 418.736896 233.263927 448.90294 203.097884 592.190367 346.385311 735.477794 203.097884 765.642814 233.263927 622.35641 376.550331 765.642814 519.837758Z"  horiz-adv-x="1024" />

    
    <glyph glyph-name="yiwancheng" unicode="&#59027;" d="M512.544-61.263000000000034c-242.074 0-438.304 196.90399998-438.30399999 439.80399999S270.469 818.34000001 512.544 818.34000001c242.06400001 0 438.304-196.90000001 438.30400001-439.799S754.608-61.263000000000034 512.544-61.263000000000034zM510.174 749.9300000000001c-204.30900002 0-369.909-166.17700003-369.909-371.17900001 0-204.995 165.60000003-371.17899998 369.909-371.179 204.275 0 369.899 166.185 369.899 371.179C880.073 583.7529999999999 714.448 749.9300000000001 510.174 749.9300000000001zM713.14799998 442.096L504.529 232.23699998999996l0 0.02000001c-6.31-6.345-14.987-10.245-24.625-10.24499999-9.6 0-18.31500001 3.94000003-24.60500001 10.24499999l-138.60499999 139.59c-6.287 6.30000001-10.167 15.00499999-10.167 24.62000003 0 19.30000001 15.59200001 34.915 34.77 34.91499997 9.622 0 18.32-3.92 24.62700001-10.25000002l113.97999999-114.81499998 184.02000001 185.092c6.295 6.325 15.025 10.222 24.61999999 10.22200002 19.18500001 0 34.755-15.61500002 34.755-34.86999999C723.298 457.12399997 719.41800001 448.40599997 713.14799998 442.096z"  horiz-adv-x="1024" />

    
    <glyph glyph-name="gengduo1" unicode="&#58967;" d="M607.284374 384.10836c0-52.662857-42.729877-95.392734-95.392734-95.392734-52.662857 0-95.392734 42.729877-95.392734 95.392734 0 52.662857 42.693757 95.392734 95.392734 95.392734C564.554497 479.501093 607.284374 436.807337 607.284374 384.10836zM877.028007 479.392734c-52.698977 0-95.392734-42.693757-95.392734-95.392734 0-52.662857 42.693757-95.392734 95.392734-95.392734 52.662857 0 95.392734 42.729877 95.392734 95.392734C972.420741 436.698977 929.690864 479.392734 877.028007 479.392734zM146.177354 479.392734c-52.698977 0-95.392734-42.693757-95.392734-95.392734 0-52.662857 42.693757-95.392734 95.392734-95.392734 52.662857 0 95.392734 42.729877 95.392734 95.392734C241.570088 436.698977 198.840212 479.392734 146.177354 479.392734z"  horiz-adv-x="1024" />

    
    <glyph glyph-name="jiantou-copy-copy" unicode="&#58974;" d="M12.03199999 350.03700000000003l354.28300001-355.371c8.021-8.043 18.709-12.459 30.08-12.459 11.457 0 22.229 4.48 30.336 12.587 15.424 15.445 16.939 39.616 3.627 56.57599999l-288.14999999 289.13100001 842.21899999 0c23.508 0 42.64499999 19.221 42.645 42.858s-19.136 42.837-42.645 42.83699999l-842.197 1e-8 295.125 295.957c8.875 17.664 6.12300001 38.059-7.125 51.349-7.936 7.936-18.66699999 12.287-30.229 12.288-12.715 0-24.853-5.12-34.155-14.421l-23.637-23.616-64.875-65.088-12.245-12.031-253.013-253.931c-8.384-8.427-12.63-19.968-12.012-32.512l0.043-0.832-0.043-0.853c-0.619-12.565 3.627-24.107 11.96799999-32.469v0zM12.03199999 350.03700000000003z"  horiz-adv-x="1028" />

    
    <glyph glyph-name="fasong" unicode="&#59082;" d="M416.583186-126.194004c-5.417989 0-10.835979 1.203998-16.253968 3.611993-15.049971 6.621987-24.681952 21.069959-24.681952 37.323927l0 299.795414c0 12.641975 5.417989 24.079953 15.651969 31.905938 9.631981 7.825985 22.273956 10.23398 34.915932 7.825985l417.787184-99.931805 84.279835 599.590829c1.203998 9.631981-8.427984 16.253968-16.855967 11.437978L147.489712 322.897119l139.061728-35.517931c19.865961-4.815991 34.313933-22.875955 32.507937-43.343915-2.407995-25.885949-26.487948-42.139918-50.567901-36.119929L30.70194 268.717225c-16.253968 4.213992-27.691946 17.457966-30.099941 33.711934-2.407995 16.253968 5.417989 32.507937 19.865961 40.93592L962.59612 889.378013c13.243974 7.825985 30.099941 7.223986 43.343915-1.203998 12.641975-8.427984 19.865961-24.079953 17.457966-39.129924l-105.349794-750.090535c-1.805996-11.437978-7.825985-21.671958-17.457966-28.293945-9.631981-6.621987-21.069959-8.427984-32.507937-6.019988l-411.165197 98.125808 0-154.111699 81.87184 76.453851c15.049971 13.845973 37.925926 16.855967 54.179894 4.213992 20.46796-15.651969 21.069959-45.149912 3.009994-62.005879L444.275132-115.358025C436.449148-122.582011 426.817166-126.194004 416.583186-126.194004L416.583186-126.194004zM416.583186 173.601411c-9.631981 0-19.263962 3.611993-27.089947 10.23398-16.855967 15.049971-18.059965 40.93592-3.009994 57.791887l216.117578 242.003527c15.049971 16.855967 40.93592 18.059965 57.791887 3.009994 16.855967-15.049971 18.059965-40.93592 3.009994-57.791887l-216.117578-242.003527C438.857143 177.815403 427.419165 173.601411 416.583186 173.601411L416.583186 173.601411z"  horiz-adv-x="1024" />

    
    <glyph glyph-name="gongyingshang" unicode="&#59071;" d="M829.793103-57.247373C829.793103-57.384024 194.159079-57.37931 194.159079-57.37931 194.165054-57.37931 194.206897 251.586207 194.206897 251.586207L194.206897 387.942294C194.206897 407.947405 177.603662 423.957133 157.611788 423.229263 156.572041 423.191393 155.528946 423.172414 154.482759 423.172414 108.167017 423.172414 70.62069 460.718733 70.62069 507.034483 70.62069 510.583119 70.839116 514.095722 71.271322 517.561732L72.327978 524.122147C72.979796 527.416214 74.187293 531.756562 75.736239 535.970057 76.331741 537.589954 76.807675 539.251341 77.160216 540.940835L136.387985 824.781506 101.822144 831.994191 135.844293 822.543607C136.006985 823.1293 138.967169 825.37931 139.617345 825.37931L884.382655 825.37931C884.95834 825.37931 888.013354 823.056066 888.155706 822.543607L922.177857 831.994191 887.612015 824.781506 946.839783 540.940835C947.192325 539.251341 947.668259 537.589954 948.263761 535.970057 949.812708 531.756562 951.020203 527.416214 951.871938 522.979875L952.526816 520.186915 954.667506 512.480433 988.689655 521.931034 953.451935 524.194569C953.191767 520.144366 953.191767 517.318974 953.317376 511.315615 953.364238 509.075915 953.37931 508.11046 953.37931 507.034483 953.37931 460.718733 915.832984 423.172414 869.517241 423.172414 868.471054 423.172414 867.42796 423.191393 866.388212 423.229263 846.396338 423.957133 829.793103 407.947405 829.793103 387.942294L829.793103 251.586207 829.793103-57.247373ZM900.413793 387.942294 865.103448 387.942294 863.818685 352.655325C865.714524 352.586293 867.61427 352.551724 869.517241 352.551724 954.835714 352.551724 1024 421.716003 1024 507.034483 1024 508.76416 1023.9797 510.064516 1023.922612 512.792911 1023.839241 516.777596 1023.839241 518.295464 1023.927375 519.6675 1024.1808 523.612725 1023.769897 527.572498 1022.711804 531.381636L1020.571115 539.088119 986.548966 529.637517 1021.225993 536.295159C1019.650567 544.50093 1017.414933 552.536929 1014.54749 560.33702L981.405625 548.153538 1015.971467 555.366241 956.743698 839.206894C947.568958 872.516573 916.688693 896 884.382655 896L139.617345 896C107.243651 896 76.453208 872.596374 67.799994 841.444793L8.028533 555.366241 42.594375 548.153538 9.452511 560.33702C6.585067 552.536929 4.349433 544.50093 2.774007 536.295159L1.355404 527.446404C0.399907 519.937236 0 513.506163 0 507.034483 0 421.716003 69.164287 352.551724 154.482759 352.551724 156.385731 352.551724 158.285476 352.586293 160.181315 352.655325L158.896552 387.942294 123.586207 387.942294 123.586207 251.586207 123.586207-57.247373C123.586207-96.381193 155.119402-128 194.159079-128L829.840921-128C868.895866-128 900.413793-96.292052 900.413793-57.247373L900.413793 251.586207 900.413793 387.942294ZM900.413793 406.068966 829.793103 406.068966 829.793103 387.942294 900.413793 387.942294 900.413793 406.068966ZM123.586207 387.942294C123.586207 367.937165 140.189442 351.927437 160.181315 352.655325 243.092489 355.674041 308.965517 423.843487 308.965517 507.034483 308.965517 513.506163 308.56561 519.937236 307.772142 526.300337L272.733168 521.931034 272.733168 486.62069 274.577177 521.931034 239.538202 526.300337C238.744735 519.937236 238.344828 513.506163 238.344828 507.034483 238.344828 421.716003 307.509114 352.551724 392.827586 352.551724 478.146059 352.551724 547.310345 421.716003 547.310345 507.034483 547.310345 513.506163 546.910438 519.937236 546.11697 526.300337L511.077996 521.931034 511.077996 486.62069 512.922004 521.931034 477.88303 526.300337C477.089562 519.937236 476.689655 513.506163 476.689655 507.034483 476.689655 421.716003 545.853941 352.551724 631.172414 352.551724 716.490886 352.551724 785.655172 421.716003 785.655172 507.034483 785.655172 513.506163 785.255265 519.937236 784.461798 526.300337L749.422823 521.931034 749.422823 486.62069 751.266832 521.931034 716.227858 526.300337C715.43439 519.937236 715.034483 513.506163 715.034483 507.034483 715.034483 423.843487 780.907511 355.674041 863.818685 352.655325L866.388212 423.229263C821.421451 424.866445 785.655172 461.879596 785.655172 507.034483 785.655172 510.583119 785.873599 514.095722 786.305804 517.561732 788.933408 538.633428 772.501723 557.241379 751.266832 557.241379 728.187932 557.241379 711.756247 538.633428 714.383851 517.561732 714.816056 514.095722 715.034483 510.583119 715.034483 507.034483 715.034483 460.718733 677.488156 423.172414 631.172414 423.172414 584.856671 423.172414 547.310345 460.718733 547.310345 507.034483 547.310345 510.583119 547.528771 514.095722 547.960977 517.561732 550.58858 538.633428 534.156895 557.241379 512.922004 557.241379 489.843105 557.241379 473.41142 538.633428 476.039023 517.561732 476.471229 514.095722 476.689655 510.583119 476.689655 507.034483 476.689655 460.718733 439.143329 423.172414 392.827586 423.172414 346.511844 423.172414 308.965517 460.718733 308.965517 507.034483 308.965517 510.583119 309.183944 514.095722 309.616149 517.561732 312.243753 538.633428 295.812068 557.241379 274.577177 557.241379 251.498277 557.241379 235.066592 538.633428 237.694196 517.561732 238.126401 514.095722 238.344828 510.583119 238.344828 507.034483 238.344828 461.879596 202.578549 424.866445 157.611788 423.229263L158.896552 387.942294 194.206897 387.942294 194.206897 406.068966 123.586207 406.068966 123.586207 387.942294Z"  horiz-adv-x="1024" />

    
    <glyph glyph-name="bofang" unicode="&#59125;" d="M665.6 691.2c-18.773333 0-34.133333-15.36-34.133333-34.133333l0-218.453333c0 0 0 0 0 0L249.173333 663.893333c-20.48 11.946667-42.666667 11.946667-63.146667 0S153.6 631.466667 153.6 607.573333l0-447.146667c0-23.893333 11.946667-44.373333 32.426667-54.613333 20.48-11.946667 42.666667-11.946667 63.146667 0L631.466667 329.386667c0 0 0 0 0 0L631.466667 110.933333c0-18.773333 15.36-34.133333 34.133333-34.133333s34.133333 15.36 34.133333 34.133333L699.733333 657.066667C699.733333 675.84 684.373333 691.2 665.6 691.2zM836.266667 691.2c-18.773333 0-34.133333-15.36-34.133333-34.133333l0-546.133333c0-18.773333 15.36-34.133333 34.133333-34.133333s34.133333 15.36 34.133333 34.133333L870.4 657.066667C870.4 675.84 855.04 691.2 836.266667 691.2z"  horiz-adv-x="1024" />

    
    <glyph glyph-name="cha1" unicode="&#59017;" d="M944.064 23.104a51.072 51.072 0 0 0-72.064-72.192l-360.448 360.96-360.512-360.96a51.008 51.008 0 1 0-72.128 72.192l360.512 360.96-360.512 360.832A51.008 51.008 0 0 0 151.04 817.024l360.512-360.896 360.448 360.96a51.008 51.008 0 0 0 72.064-72.128L583.68 383.936l360.448-360.896z"  horiz-adv-x="1024" />

    
    <glyph glyph-name="weizhiicon" unicode="&#58917;" d="M511.939185 766.099537C300.790118 766.099537 129.900463 595.209882 129.900463 384.060815S300.790118 1.900463 511.939185 1.900463s382.160352 171.011284 382.160352 382.160352-170.889654 382.038722-382.160352 382.038722z m20.190522-723.453142v120.048462c0 12.041335-8.027557 20.068892-20.068892 20.068892s-20.068892-8.027557-20.068892-20.068892v-120.048462C318.912935 52.741656 180.741656 190.912935 170.646395 363.870293h120.048462c12.041335 0 20.068892 8.027557 20.068892 20.068892s-8.027557 20.068892-20.068892 20.068892H170.646395c9.973631 172.957358 148.14491 311.128638 321.223898 321.223898v-120.048462c0-12.041335 8.027557-20.068892 20.068892-20.068891s20.068892 8.027557 20.068892 20.068891v120.048462c172.957358-9.973631 311.128638-148.14491 321.223898-321.223898h-120.048462c-12.041335 0-20.068892-8.027557-20.068891-20.068892s8.027557-20.068892 20.068891-20.068892h120.048462c-9.973631-172.957358-148.14491-311.128638-321.102268-321.223898zM511.939185 384.060815m-80.397197 0a80.397197 80.397197 0 1 1 160.794394 0 80.397197 80.397197 0 1 1-160.794394 0Z"  horiz-adv-x="1024" />

    
    <glyph glyph-name="shaixuan" unicode="&#58913;" d="M576.111-31.64c-4.956 0-9.922 1.15-14.485 3.467l-128.026 65a32 32 0 0 0-17.513 28.533V398.317L165.184 649.221a32 32 0 0 0 22.627 54.627h640.857a32 32 0 0 0 22.627-54.627L608.112 406.037V0.36a31.997 31.997 0 0 0-32.001-32z m-96.024 116.642l64.025-32.507V419.292a31.996 31.996 0 0 0 9.373 22.627l197.928 197.929H265.066L470.714 434.2a32.001 32.001 0 0 0 9.373-22.627v-326.571z"  horiz-adv-x="1024" />

    
    <glyph glyph-name="yonghu-yuan" unicode="&#58915;" d="M511.333 832.667c-247.424 0-448-200.576-448-448s200.576-448 448-448 448 200.576 448 448-200.576 448-448 448z m0-832c-51.868 0-102.15 10.144-149.451 30.15-36.011 15.231-69.123 35.67-98.812 60.897 12.177 31.985 42.226 63.875 84.223 88.903C396.189 209.757 456.222 226.47 512 226.47c55.631 0 115.416-16.658 164.026-45.703 41.762-24.953 71.689-56.812 83.863-88.804-29.764-25.342-62.976-45.865-99.106-61.146-47.299-20.006-97.582-30.15-149.45-30.15z m296.268 139.658c-20.493 35.937-54.353 68.855-98.747 95.381C649.75 271.021 579.839 290.47 512 290.47c-67.964 0-138.094-19.488-197.471-54.875-44.644-26.606-78.656-59.594-99.195-95.586-23.835 28.755-43.234 60.652-57.85 95.208-20.006 47.3-30.15 97.583-30.15 149.451s10.144 102.15 30.15 149.451c19.337 45.719 47.034 86.792 82.321 122.078 35.286 35.287 76.359 62.983 122.078 82.321 47.3 20.006 97.583 30.15 149.451 30.15 51.868 0 102.15-10.144 149.451-30.15 45.719-19.337 86.792-47.034 122.078-82.321 35.287-35.286 62.983-76.359 82.321-122.078 20.006-47.3 30.15-97.583 30.15-149.451s-10.144-102.15-30.15-149.451c-14.563-34.429-33.869-66.22-57.583-94.892zM512 675.777c-88.224 0-160-71.776-160-160s71.776-160 160-160c88.225 0 160 71.775 160 160s-71.775 160-160 160z m0-256c-52.935 0-96 43.065-96 96s43.065 96 96 96 96-43.065 96-96-43.065-96-96-96z"  horiz-adv-x="1024" />

    
    <glyph glyph-name="yonghu" unicode="&#58916;" d="M512 448.777c-88.224 0-160 71.776-160 160s71.776 160 160 160c88.225 0 160-71.776 160-160s-71.775-160-160-160z m0 256c-52.935 0-96-43.065-96-96s43.065-96 96-96 96 43.065 96 96-43.065 96-96 96zM454.901 25.406c-96.594 0-184.933 3.802-231.263 49.955C203.308 95.614 193 121.836 193 153.299c0 31.629 10.247 62.812 30.457 92.686 17.978 26.573 42.908 50.741 74.098 71.833C359.256 359.54 437.418 383.47 512 383.47c74.55 0 152.55-23.943 214.002-65.691 31.05-21.094 55.861-45.273 73.746-71.867C819.822 216.063 830 184.904 830 153.299c0-31.552-10.317-57.827-30.664-78.097-50.714-50.521-151.822-50.128-258.88-49.723a7395.45 7395.45 0 0 1-56.914 0.001c-9.605-0.037-19.163-0.074-28.641-0.074zM512 89.553c9.567 0 19.149-0.037 28.701-0.073 49.52-0.191 96.284-0.37 135.808 4.396 38.418 4.633 64.546 13.604 77.659 26.668 5.079 5.06 11.832 13.96 11.832 32.755 0 38.089-27.688 78.744-75.963 111.54C638.933 299.558 574.04 319.47 512 319.47c-126.309 0-255-83.862-255-166.171 0-18.675 6.738-27.547 11.807-32.596 32.045-31.922 128.975-31.55 214.491-31.224 9.556 0.037 19.139 0.074 28.702 0.074z"  horiz-adv-x="1024" />

    
    <glyph glyph-name="wangluoxitong" unicode="&#58926;" d="M926 368.437c17.384 0 31.476 14.092 31.476 31.476S943.384 431.388 926 431.388H544v73.543h118c17.673 0 32 14.327 32 32V766.01c0 17.673-14.327 32-32 32H362c-17.673 0-32-14.327-32-32v-229.078c0-17.673 14.327-32 32-32h118v-73.543H98c-17.384 0-31.476-14.092-31.476-31.476S80.616 368.437 98 368.437h143.604v-72.783h-118c-17.673 0-32-14.327-32-32v-229.078c0-17.673 14.327-32 32-32h300c17.673 0 32 14.327 32 32V263.653c0 17.673-14.327 32-32 32h-118v72.783h412.228v-72.783h-122.61c-17.673 0-32-14.327-32-32v-229.078c0-17.673 14.327-32 32-32h300c17.673 0 32 14.327 32 32V263.653c0 17.673-14.327 32-32 32h-113.39v72.783H926zM394 734.01h236v-165.078H394V734.01z m-2.396-667.435h-236V231.653h236v-165.078z m471.618 0h-236V231.653h236v-165.078z"  horiz-adv-x="1024" />

    
    <glyph glyph-name="wenjian" unicode="&#58929;" d="M736.005 199.506H174.18c-17.673 0-32 14.327-32 32V640.418c0 17.673 14.327 32 32 32h157.213c7.96 0 15.635-2.967 21.525-8.321l47.547-43.222h335.54c17.673 0 32-14.327 32-32v-357.369c0-17.673-14.327-32-32-32z m-529.825 64h497.825V556.875H388.094a32.002 32.002 0 0 0-21.525 8.321l-47.547 43.222H206.18v-344.912zM853.18 74.908H317.509c-17.673 0-32 14.327-32 32s14.327 32 32 32H821.18V481.794c0 17.673 14.327 32 32 32s32-14.327 32-32v-374.886c0-17.673-14.327-32-32-32z"  horiz-adv-x="1024" />

    
    <glyph glyph-name="mokuai" unicode="&#58931;" d="M737.148 354.08h-256.85V609.927c0 17.673-14.327 32-32 32h-288.85c-17.673 0-32-14.327-32-32v-576.698c0-17.673 14.327-32 32-32h577.7c17.673 0 32 14.327 32 32V322.08c0 17.673-14.327 32-32 32z m-320.85 223.847V354.08h-224.85V577.927h224.85z m-224.85-288.85h224.85v-223.848h-224.85V289.077z m513.7-223.848h-224.85V290.08h224.85v-224.851zM843.523 749.302h-280c-17.132 0-31.02-13.888-31.02-31.02v-280c0-17.132 13.888-31.02 31.02-31.02h280c17.132 0 31.02 13.888 31.02 31.02v280c0 17.132-13.888 31.02-31.02 31.02z m-31.019-280H594.543V687.263h217.961v-217.961zM671.523 610.282h64v-64h-64z"  horiz-adv-x="1024" />

    
    <glyph glyph-name="shujuku" unicode="&#58934;" d="M864.035 527.556V687.573c0 17.673-14.327 32-32 32h-640.07c-17.673 0-32-14.327-32-32v-160.017c0-16.023 11.776-29.295 27.146-31.634-15.37-2.339-27.146-15.611-27.146-31.634v-160.017c0-16.92 13.135-30.765 29.764-31.914-16.629-1.149-29.764-14.993-29.764-31.914v-160.018c0-17.673 14.327-32 32-32h640.07c17.673 0 32 14.327 32 32v160.02c0 16.92-13.136 30.765-29.764 31.914 16.629 1.149 29.764 14.993 29.764 31.914V464.289c0 16.023-11.777 29.295-27.146 31.634 15.369 2.338 27.146 15.611 27.146 31.633z m-640.07 128.017h576.07v-96.017h-576.07v96.017z m576.07-543.146h-576.07v96.018h576.07v-96.018z m0 223.845h-576.07v96.017h576.07v-96.017z"  horiz-adv-x="1024" />

    
    <glyph glyph-name="shuju01" unicode="&#58938;" d="M351.041 65.198H160.037V353.101H351.04v-287.903z m-127.004 64h63.003V289.101h-63.003v-159.903zM606.835 65.198H415.832V544.21h191.003v-479.012z m-127.003 64h63.003V480.21h-63.003v-351.012zM864.598 65.198H673.594V705.216h191.004v-640.018z m-127.004 64h63.004V641.216h-63.004v-512.018z"  horiz-adv-x="1024" />

    
    <glyph glyph-name="baocun" unicode="&#58939;" d="M819.823 812.306H206.991c-67.703 0-122.588-54.885-122.588-122.588v-612.833c0-67.703 54.885-122.588 122.588-122.588h612.833c67.703 0 122.588 54.885 122.588 122.588V689.718c-0.001 67.703-54.885 122.588-122.589 122.588z m-124.435-63.313v-241.142H331.772V748.993h363.616z m185.787-672.274c0.027-33.765-27.323-61.158-61.088-61.185H207.133c-16.389 0-31.864 6.297-43.454 17.887s-18.039 26.91-18.039 43.298v612.94c0.061 33.923 27.57 61.395 61.493 61.41h61.327v-245.294c-0.05-33.771 27.286-61.187 61.057-61.237h367.888c33.853 0 61.299 27.387 61.299 61.237V751.069h61.206c33.872-0.036 61.301-27.524 61.265-61.396V76.719zM574.817 566.064c17.483 0 31.656 14.173 31.656 31.656v61.292c0 17.483-14.173 31.656-31.656 31.656s-31.656-14.173-31.656-31.656v-61.292c0-17.483 14.173-31.656 31.656-31.656z"  horiz-adv-x="1024" />

    
    <glyph glyph-name="chuangjianshili" unicode="&#58942;" d="M832.125306 832.059831H192.127564C121.432134 832.059831 64.301413 774.929109 64.301413 704.23368V64.235937c0-70.691817 57.221033-128.03206 127.91285-128.03206l-0.086699-0.028899H832.125306v0.028899a128.436654 128.436654 0 0 1 28.050589 3.099473c0.505741 0.111986 1.00787 0.234809 1.509999 0.361244q4.797319 1.134306 9.453753 2.626243l1.047607 0.343181q1.77732 0.585215 3.529353 1.221005l0.787512 0.288995q1.701459 0.628564 3.381243 1.307703 1.444976 0.581603 2.889951 1.199329 0.881435 0.379306 1.755645 0.773062t1.831507 0.841699q1.311315 0.614115 2.604568 1.253516l0.057799 0.028899q3.879759 1.929042 7.586122 4.107343a128.602826 128.602826 0 0 1 33.234438 27.898866l0.166172 0.195072q1.827894 2.167463 3.558252 4.410788l0.33957 0.440717a127.815314 127.815314 0 0 1 17.234946 30.420349l0.242033 0.614114a127.356534 127.356534 0 0 1 8.492844 38.385776q0.050574 0.816411 0.093923 1.632823c0.054187 1.083732 0.126435 2.167463 0.155335 3.283707s0.072249 2.199975 0.072249 3.305381V704.23368C960.186266 774.929109 902.817124 832.059831 832.125306 832.059831zM192.127564 0.115146A64.005193 64.005193 0 0 0 128.241582 64.235937V384.117404h127.880338v-63.88237A127.858663 127.858663 0 0 1 384.125081 192.296897H640.124178a127.699716 127.699716 0 0 1 127.880338 127.938137v64.001581l0.11921-0.119211H896.246097v-319.881467a63.578925 63.578925 0 0 0-12.585737-38.053431 65.20091 65.20091 0 0 0-6.249519-7.199591c-0.361244-0.361244-0.773062-0.751387-1.159593-1.116244-0.722488-0.693588-1.473875-1.361889-2.228875-2.015741a66.046221 66.046221 0 0 0-4.540836-3.594376c-0.614115-0.44433-1.235454-0.881435-1.864018-1.300478s-1.289641-0.838086-1.943492-1.242679q-2.051865-1.267966-4.186817-2.36976-0.675526-0.361244-1.361889-0.682751-1.224617-0.596052-2.474521-1.141531-1.589473-0.689976-3.215071-1.293253-0.559928-0.205909-1.119856-0.404593-1.116244-0.390143-2.246937-0.722488-1.640047-0.505741-3.308994-0.924784l-0.079474-0.018063q-2.037416-0.505741-4.11818-0.877822c-0.885048-0.158947-1.773708-0.361244-2.66598-0.480455a64.962489 64.962489 0 0 0-8.771002-0.657463H192.127564z m575.996162 447.942427c-35.347715 0-64.059379-28.476856-64.059379-63.820958v-64.001581c0-35.347715-28.592454-63.997968-63.940169-63.997968h-255.999097C348.780978 256.237066 320.062089 284.890932 320.062089 320.235034v64.001581c0 35.347715-28.588842 63.820958-63.940169 63.820958H128.241582V704.23368A63.802896 63.802896 0 0 0 192.127564 768.119662H832.125306A64.005193 64.005193 0 0 0 896.246097 704.23368V448.057573h-128.122371zM640.124178 544.148449h-96.090876V640.239324a31.970084 31.970084 0 1 1-63.940169 0v-96.090875h-95.968052a31.970084 31.970084 0 1 1 0-63.940169H480.093133v-95.971665a31.970084 31.970084 0 1 1 63.940169 0V480.20828h96.090876a31.970084 31.970084 0 1 1 0 63.940169z"  horiz-adv-x="1024" />

    
    </font>
</defs>
</svg>
